/* XPM */
static char *result[] = {
/* columns rows colors chars-per-pixel */
"50 50 117 2 ",
"   c #000000",
".  c #080500",
"X  c #060801",
"o  c #0A0B01",
"O  c #150E00",
"+  c #1D0F00",
"@  c #131502",
"#  c #1C1300",
"$  c #161B02",
"%  c #1C1C02",
"&  c #211701",
"*  c #221A06",
"=  c #2E1D01",
"-  c #251D08",
";  c #341D00",
":  c #241F10",
">  c #1D2303",
",  c #232403",
"<  c #292604",
"1  c #222B04",
"2  c #2A2905",
"3  c #342300",
"4  c #3C2400",
"5  c #352B03",
"6  c #3C2B01",
"7  c #2B3405",
"8  c #2E3905",
"9  c #343404",
"0  c #3A3404",
"q  c #323A05",
"w  c #3B3905",
"e  c #282312",
"r  c #27251A",
"t  c #28271A",
"y  c #432500",
"u  c #462800",
"i  c #4B2B00",
"p  c #413F05",
"a  c #4A3B02",
"s  c #4E340F",
"d  c #533504",
"f  c #5F3400",
"g  c #593E04",
"h  c #4E3410",
"j  c #623600",
"k  c #633F00",
"l  c #693900",
"z  c #703F00",
"x  c #364306",
"c  c #3B4306",
"v  c #3E4D07",
"b  c #444406",
"n  c #4C4705",
"m  c #454B06",
"M  c #4A4C07",
"N  c #425107",
"B  c #4C5307",
"V  c #465608",
"C  c #4D5608",
"Z  c #475808",
"A  c #485908",
"S  c #505107",
"D  c #525E09",
"F  c #5A5B08",
"G  c #6D4B01",
"H  c #7E4500",
"J  c #7F4900",
"K  c #614515",
"L  c #546209",
"P  c #596509",
"I  c #5D6909",
"U  c #626108",
"Y  c #626C0A",
"T  c #696A09",
"R  c #67710A",
"E  c #6A720A",
"W  c #74760A",
"Q  c #747A0B",
"!  c #7A7E0B",
"~  c #55452F",
"^  c #615135",
"/  c #5D574E",
"(  c #605A4F",
")  c #864E00",
"_  c #884E00",
"`  c #865600",
"'  c #8F5B00",
"]  c #955400",
"[  c #8F5F1D",
"{  c #A15B00",
"}  c #996406",
"|  c #AA6100",
" . c #B46900",
".. c #B86900",
"X. c #B27E26",
"o. c #BE7E26",
"O. c #C37100",
"+. c #9C7E55",
"@. c #7D810B",
"#. c #84850C",
"$. c #8A8A0C",
"%. c #CA8308",
"&. c #DA8D09",
"*. c #CD8829",
"=. c #ECA833",
"-. c #FFB637",
";. c #B29460",
":. c #CFA771",
">. c #E0B57A",
",. c #A99F8F",
"<. c #B1A591",
"1. c #ECC480",
"2. c #FFD48A",
"3. c #E1D2BE",
"4. c #EADBC1",
"5. c #F3E3CE",
"6. c #FDEDD1",
/* pixels */
"$.$.$.$.$.$.$.$.$.$.$.$.$.$.$.$.$.$.I A V R @.$.$.$.$.$.$.$.$.$.$.$.$.$.$.$.$.$.$.$.$.$.$.$.$.$.$.$.",
"$.$.$.$.$.$.$.$.$.$.$.$.$.$.$.$.$.$.I A V R #.$.$.$.$.$.$.$.$.$.$.$.$.$.$.$.$.$.$.$.$.$.$.$.$.$.$.$.",
"$.$.$.$.$.$.$.$.$.$.$.$.$.$.$.$.$.$.I A A R #.$.$.$.$.$.$.$.$.$.$.$.$.$.$.$.$.$.$.$.$.$.$.$.$.$.$.$.",
"$.$.$.$.$.$.$.$.@.D A A A A A A A A A A Z R #.$.$.$.$.$.$.$.$.$.$.$.$.$.$.$.$.$.$.$.$.$.$.$.$.$.$.$.",
"$.$.$.$.$.$.$.$.@.D V A A A A A A A A A A R #.$.$.$.$.$.$.$.$.$.$.$.$.$.$.$.$.$.$.$.$.$.$.$.$.$.$.$.",
"$.$.$.$.$.$.$.$.@.D A A Z A A Z A A A A A R #.$.$.$.$.$.$.$.$.$.$.$.$.$.$.$.$.$.$.$.$.$.$.$.$.$.$.$.",
"P P W $.$.@.I P I ! ! ! @.@.! L A A A A A I #.$.@.I P E #.$.$.$.$.$.$.$.$.$.$.$.$.$.$.$.$.$.$.$.$.$.",
"Z Z R $.$.#.A A L @.$.$.$.$.$.I A A A A A R #.$.Q D A I #.$.$.$.$.$.$.$.$.$.$.$.$.$.$.$.$.$.$.$.$.$.",
"Z V R $.$.@.D V L @.$.$.$.$.$.I A A A A Z Y #.$.E L Z I #.$.$.$.$.$.$.$.$.$.$.$.$.$.$.$.$.$.$.$.$.$.",
"@.@.R P P I Q @.@.$.$.$.$.$.$.I A A A A A Y #.$.@.@.! E I P I @.$.$.$.$.$.E P I E $.$.$.$.$.$.$.$.$.",
"$.$.E A A P #.$.$.$.$.$.$.$.$.I A A A A A Y #.$.$.$.$.Q L Z L ! $.$.$.$.@.Y A D Y $.$.$.$.$.$.$.$.$.",
"$.$.E A Z P #.$.$.$.$.$.$.$.$.I A Z A A A Y #.#.#.#.$.Q A Z L Q $.$.$.$.#.I A A Y $.$.$.$.$.$.$.$.$.",
"E E R R E E E E Q #.$.$.$.$.$.Q E E c 1 1 c C D C C C C V V A Y E E E E R R E E ! $.$.$.$.$.$.$.$.$.",
"A A R $.$.@.L A P @.$.$.$.$.$.$.$.$.9     $ 7 > , > 1 7 x V Z A Z Z Z A L Q $.$.$.$.$.$.$.$.$.$.$.$.",
"A A R $.$.@.A A L @.$.$.$.$.$.$.$.$.9     @ > @ @ @ @ 1 q v Z Z Z Z Z Z D Q $.$.$.$.$.$.$.$.$.$.$.$.",
"A A P R R Y A A D R R R E E E C b b $   . # 3 4 4 4 6 6 0 x v N Z Z A Z A I E E E E E E E E R b m m ",
"Z A A A A A A A A A A Z A A A $         O ; k ` ' ' ` G a 9 7 c N Z A A A Z A A A A Z A A A N       ",
"A A A Z A A Z A A A A Z A A A $       . & d ' %.&.&.%.} n = > 8 m V A A A A Z Z A A A A A A N       ",
"A A A I P P P P P P P P P P P q , * @ o * K X.=.-.-.=.X.K - % q S P P P P P P P P I P P P P L > 1 , ",
"A A R $.$.$.$.$.$.$.$.$.$.$.$.$.#.W S 2 e ^ ;.1.2.2.1.;.^ e 2 S W #.$.$.$.$.$.$.$.$.$.$.$.$.$.$.$.$.",
"A A R $.$.$.$.$.$.$.$.$.$.$.$.$.$.W S 2 t ( <.4.6.5.4.<.( r 2 S W $.$.$.$.$.$.$.$.$.$.$.$.$.$.$.$.$.",
"Z A R $.$.$.$.$.$.$.$.$.$.$.$.$.#.W S 2 r ( ,.3.5.5.4.,./ r 2 S W $.$.$.$.$.$.$.$.$.$.#.! @.! @.@.@.",
"Z A R $.$.$.$.$.$.$.$.$.$.$.$.$.#.W S < : ~ +.:.>.>.:.+.~ : 2 S W $.$.$.$.$.$.$.$.$.$.E Z A A A Z Z ",
"A Z R #.$.$.$.$.$.$.$.$.$.$.$.$.$.W S < * h [ o.*.*.o.[ h * 2 S W #.$.$.$.$.$.$.$.$.$.Q Z Z A A Z Z ",
"A A R #.$.$.$.$.$.$.$.$.$.$.$.$.$.W S 2 & i _  .O.O. .) u & 2 S W $.$.$.$.$.$.$.$.$.$.Q A A A A Z A ",
"A A R $.$.$.$.$.@.L A L @.$.$.I V v w 2 & i _  .O.O...) u & % m W ! Y A A A A A Z Z Z A A A A Z A A ",
"A A R $.$.$.$.$.@.D A L @.$.$.I V v c 2 & i _  .O.O...) i # % M W @.I A A A A A A A A A A Z A A A A ",
"Z A R $.$.$.$.$.@.D A L @.$.$.I V v c 2 & i _  .O.O...) i # % m Q @.I A A A A A A Z A A A A A A A A ",
"A Z A Z A P #.$.@.D A A A A Z A V v c < & i _  .O.O. ._ i # $ 7 v V Z Z A Z A A A A A A A Z A A A Z ",
"A A A Z Z L #.$.@.D A Z A A A A V v c < & i _  .O.O. ._ i # $ 7 v Z Z Z A A A A A A Z A A A A A A A ",
"A A Z Z A I #.$.@.D A A A Z A A V v c < & y ) | ....{ ) y # $ 7 v Z Z A A A A A A A A A A A Z A A A ",
"@ $ @ @ $ > D P P A Z A A A Z V V v 8 % # 4 l ] { { ] z 4 + $ 7 v Z A A A A A Z A A A A A A A A A A ",
"          @ v A A A Z A A A A Z V v 7 $ O ; f H _ _ z j ; @ $ 7 v V A A A A A A A A A A A A A A A A ",
"          @ N Z A A A Z A A A A Z v 8 > $ = i j l l l i ; # > q v V A A A V A A V A A A A A A A A A ",
"T T T Y T T ! ! ! ! ! ! ! ! @.! Q W F n w 5 4 y i y y y 0 w N I E ! ! ! ! ! ! ! ! ! ! ! ! ! Q A A A ",
"$.$.$.$.$.$.$.$.$.$.$.$.$.$.$.$.$.$.! W U p - # + + & 5 M U E @.$.$.$.$.$.$.$.$.$.$.$.$.$.$.$.A A A ",
"$.$.$.$.$.$.$.$.$.$.$.$.$.$.$.$.$.$.$.#.Q M < @ O @ % 0 F W $.$.$.$.$.$.$.$.$.$.$.$.$.$.$.$.#.Z A A ",
"$.$.$.$.$.$.E E E $.$.$.$.$.$.$.$.$.$.$.#.F 8 1 2 9 w S T #.$.$.$.$.$.$.$.$.$.$.$.$.$.$.$.$.$.E E R ",
"$.$.$.$.$.! A A P @.$.$.$.$.$.$.$.$.$.$.#.Y V x B U T W } @.$.$.$.$.$.$.$.$.$.$.$.$.$.$.$.$.$.$.$.$.",
"$.$.$.$.$.! L A P #.$.$.$.$.$.$.$.$.$.$.$.T A Z I ! #.$.@.$.$.$.$.$.$.$.$.$.$.$.$.$.$.$.$.$.$.$.$.$.",
"$.$.$.$.$.#.E R R R R E E R E @.$.$.! E E I A A R #.$.$.$.$.@.Q R E @.$.#.! E E Q $.$.$.$.$.$.R R R ",
"$.$.$.$.$.$.$.$.@.L Z Z A A Z @.$.$.I Z Z Z A A I @.$.$.$.$.@.I A D Q $.@.R A A Y $.$.$.$.$.#.V A A ",
"$.$.$.$.$.$.#.$.@.L V Z A A Z Q $.$.Y A Z Z Z A Y #.$.$.$.$.@.I A L Q $.@.R V A Y $.$.$.$.$.$.Z A Z ",
"$.$.@.@.@.@.@.@.Q I P L A Z Z ! $.$.I A Z N x x L @.$.#.@.@.Q R P R @.$.#.E P I E $.$.$.! ! Q Z A A ",
"$.$.R A Z A A A P @.$.@.L A A ! $.$.I Z A 7 X   9 ! $.W L Z L Q $.$.$.$.$.$.$.$.$.$.$.Q Z A Z A A A ",
"$.$.E A A A A A P #.$.@.L A A Q $.$.Y A A 7 X   9 ! $.W L Z L Q $.$.$.$.$.$.$.$.$.$.#.Q Z Z A A A Z ",
"@.@.R A A A A A L Q @.E D A A R ! ! C x x 1 X   7 T ! R L Z L E @.@.@.! @.! ! @.! ! @.R A A A A A A ",
"Z A A A A A Z A Z Z A A A A A A A A >           > v A A A Z Z A V A V V Z Z Z Z Z Z A A A Z A A A A ",
"A Z A A Z A A A A A A A A A A A A A >           > v A A A A A A V Z A Z A A A A A A Z A A A A A A Z ",
"A A A A A A A Z A A Z A Z A A A A Z >           > v A A A A A Z Z Z A A A A A Z A A A A Z A A A A A "
};
