/* XPM */
static char *f7e9bf765dda40b8fc6dab9223728c91sKGAUfJCIdQ4O5VL[] = {
/* columns rows colors chars-per-pixel */
"50 50 101 2 ",
"   c None",
".  c #000000",
"X  c #060801",
"o  c #0B0C01",
"O  c #150D01",
"+  c #0E1202",
"@  c #131502",
"#  c #161802",
"$  c #1B1B02",
"%  c #1B2203",
"&  c #252603",
"*  c #252C04",
"=  c #2C2D04",
"-  c #332003",
";  c #2B3505",
":  c #333404",
">  c #3D3605",
",  c #353A05",
"<  c #3A3B05",
"1  c #343432",
"2  c #432A04",
"3  c #364206",
"4  c #3F4106",
"5  c #3D4B07",
"6  c #3B411D",
"7  c #444406",
"8  c #404F07",
"9  c #4A4A06",
"0  c #445107",
"q  c #4B5507",
"w  c #475808",
"e  c #495A08",
"r  c #515107",
"t  c #525F08",
"y  c #6A4406",
"u  c #794006",
"i  c #7D5107",
"p  c #546209",
"a  c #5A6609",
"s  c #5E6A0A",
"d  c #636D0A",
"f  c #6A6E0A",
"g  c #67700A",
"h  c #6A730A",
"j  c #73760A",
"k  c #747A0B",
"l  c #7B7E0B",
"z  c #7E6C4F",
"x  c gray42",
"c  c #7D7974",
"v  c gray50",
"b  c #844806",
"n  c #805108",
"m  c #965408",
"M  c #935E09",
"N  c #9D5809",
"B  c #B4670B",
"V  c #BC6D0C",
"C  c #B76E15",
"Z  c #B97E3A",
"A  c #C3710C",
"S  c #C6790B",
"D  c #C67819",
"F  c #7D810B",
"G  c #84850C",
"H  c #87880C",
"J  c #8A8A0C",
"K  c #DE890D",
"L  c #E38D0D",
"P  c #E7940E",
"I  c #E8950E",
"U  c #F0970E",
"Y  c #F1980E",
"T  c #F89E0F",
"R  c #FDA20F",
"E  c #FAA317",
"W  c #FDAA23",
"Q  c #ECA63E",
"!  c #CC9654",
"~  c #C6995F",
"^  c #D5A264",
"/  c #DAA668",
"(  c #DBAA6D",
")  c #C7AF96",
"_  c #E1B784",
"`  c #E4BD85",
"'  c #FED188",
"]  c #E9C892",
"[  c #FEDA9F",
"{  c #FFDCA5",
"}  c #E4D5C3",
"|  c #E4D9CD",
" . c #F3E3CE",
".. c #EAEAEA",
"X. c #F9F1E7",
"o. c #FAF2EA",
"O. c #FAF3EA",
"+. c #FFFAF2",
"@. c #FFFAF3",
"#. c #FEFDFB",
"$. c white",
/* pixels */
"J J J J J J J J J J J J J J J J J G g e e d G J J J J J J J J J J J J J J J J J J J J J J J J J J J ",
"J J J J J J J J J J J J J J J J J G g e e d G J J J J J J J J J J J J J J J J J J J J J J J J J J J ",
"J J J J J J J J J J H H H H H H H G f e e d G J J J J J J J J J J J J J J J J J J J J J J J J J J J ",
"J J J J J J J J l a e e e e e e e e e e e d G J J J J J J J J J J J J J J J J J J J J J J J J J J J ",
"J J J J J J J J l a e e e e e e e e e e e d G J J J J J J J J J J J J J J J J J J J J J J J J J J J ",
"H H H J J J H G k a e e e e e e e e e e e d G J J H H H J J J J J J J J J J J J J J J J J J J J J J ",
"p a h H J F d a d k F F F F r @ + + + + + @ $ $ $ @ @ @ $ $ $ $ $ $ r G J J J J J J J J J J J J J J ",
"e e g H J l p e a l J J J J r . . . . . . . . . . . . . . . . . . . 7 l J J J J J J J J J J J J J J ",
"p p g F G k a p d F J J J J r . . . . . . . . . . . . . . . . . . . 7 l J H G G H J J J J J J J J J ",
"F F g a p d k F G H J J J J r . . . . . . . . . . . . . . . . . . . 7 l F g a a h H J J J J J J J J ",
"J J g e e a F J J J J J J J r . . . . . . . . . . . . . . . . . . . 7 l F d e e f G J J J J J J J J ",
"G G g p p s l G H 7 o . . . x $.$.$.@.{ R R R R R R R R R R R R R R n O . . . & g H J J J J J J J J ",
"d d g j j h d d h < o . . . x $.$.$.@.{ R R R R R R R R R R R R R R n O . . . : F J J J J J J J J J ",
"e e g H J l p e a , o . . . x $.$.$.@.{ R R R R R R R R R R R R R R n O . . . < J J J J J J J J J J ",
"e e d F F j p e a , o . . . x $.$.$.@.{ R R R R R R R R R R R R R R n O . . . : G G G G G G F j j j ",
"e e p s t q 5 5 5 6 1 1 1 1 c | | | } ` L L L L L L L L L I U Y Y Y M 2 - - - > q q q q t s a : = = ",
"e e e e * X . . . v ..$.$.$.) u u u u u u u u u u u u u u N V A A A L T R R R M . . . X % w 5 X . . ",
"e e e e * X . . . v ..$.$.$.) u u u u u u u u u u u u u u N V A A A L T R R R M . . . X % e 0 @ o o ",
"e e a g , o . . . v ..$.$.$.) u u u u u u u u u u u u u u N V A A A L T R R R M . . . X * h f 9 9 9 ",
"e e g H 7 o . . . v ..$.$.$.) u u u u u u u u u u u u u u N V A A A L T R R R M . . . X : J J J J J ",
"e e g H 7 o . . . z ] [ [ [ ~ u u u u b m m m m m m m m m Z ^ ( ( ( Q E R R R M . . . X : G G G G G ",
"e e g H 7 o . . . i I R R R S u u u u m A A A A A A A A A _ o.$.$.$.' W R R R M . . . X & f f f f f ",
"e e g H 7 o . . . i I R R R S u u u u m A A A A A A A A A _ o.$.$.$.' W R R R M . . . X % e e e e e ",
"e e g H 7 o . . . i I R R R S u u u u m A A A A A A A A A _ o.$.$.$.' W R R R M . . . X % e e w e e ",
"e e g H 7 o . . . i I R R R S u u u u m A A A A A A A A A _ o.$.$.$.' W R R R M . . . X % e e e e e ",
"e e g H 7 o . . . i I R R R S u u u u m A A A A A A A A A _ o.$.$.$.' W R R R M . . . X % e e e e e ",
"e e g H 7 o . . . i I R R R S u u u u m A A A A A A A A A _ o.$.$.$.' W R R R M . . . X % e e e e w ",
"e e p d , o . . . i I R R R S u u u u m A A A A A A A A A _ o.$.$.$.' W R R R M . . . X % e e e e w ",
"e e e e * X . . . i I R R R S u u u u m A A A A A A A A A _ o.$.$.$.' W R R R M . . . X % e e e w w ",
"e e e e * X . . . i I R R R S u u u u m A A A A A A A A A _ o.$.$.$.' W R R R M . . . X % e e e e w ",
"* * * * # X . . . i I R R R K B B B C !  . . . . . . . . .X.#.$.$.$.' W R R R M . . . X % e e e e e ",
"X X X X X . . . . i I R R R L A A A D / $.$.$.$.$.$.$.$.$.$.$.$.$.$.' W R R R M . . . X % e e e e e ",
". . . . . . . . . i I R R R L A A A D / $.$.$.$.$.$.$.$.$.$.$.$.$.$.' W R R R M . . . X % e e e e e ",
"9 9 9 9 & X . . . i I R R R L A A A D / $.$.$.$.$.$.$.$.$.$.$.$.$.$.' W R R R M . . . X * g f e e e ",
"G G G G 7 o . . . i P R R R L A A A D / $.$.$.$.$.$.$.$.$.$.$.$.$.$.' W R R R M . . . X : H F e e e ",
"J J J J J J J J J 7 o . . . y R R R R R R R R R R R R R R R R R R R n O . . . < J J J J J J G e e e ",
"J J J J J H k j l 7 o . . . y R R R R R R R R R R R R R R R R R R R n O . . . < J J J J J J H d d d ",
"J J J J J l a t s < o . . . y R R R R R R R R R R R R R R R R R R R n O . . . < J J J J J J J G G G ",
"J J J J J l p e a , o . . . y R R R R R R R R R R R R R R R R R R R n O . . . < J J J J J J J J J J ",
"J J J J J G g f g , o . . . y R R R R R R R R R R R R R R R R R R R n O . . . : l H J J J J H j h h ",
"J J J J J J H H l a e e e e ; . . . . . . . . . . . . . . . . . . . 7 l F f p p g H J J J J G t e e ",
"J J J J J J J J l a e e e e ; . . . . . . . . . . . . . . . . . . . 4 l F d e e f G J J J J G e e e ",
"J J H F l l l l j s p p e e ; . . . . . . . . . . . . . . . . . . . 7 l G g a a h H J H F l k e e e ",
"J J h t e e e e a l G k a e ; . . . . . . . . . . . . . . . . . . . 7 l J H H H H J H j t e e e e e ",
"J J g e e e e e a l J l a e , # $ $ @ + + o . . o $ $ # @ + @ # $ $ r G J J J J J J H j e e e e e e ",
"l l d e e e e e p h l h a e e f l j t 3 3 * X . = f l g p e p g l l l l l l l l l l l g e e e e e e ",
"e e e e e e e e e e e e e e e e e 0 * . . . . . % 8 e e e e e e e e e e e e e e e e e e e e e e e e ",
"e e e e e e e e e e e e e e e e e 8 * . . . . . % 5 w e e e e e e e e e e e e e e e e e e e e e e e ",
"e e e e e e e e e e e e e e e e e 8 * . . . . . % 5 w e e e e e e e e e e e e e e e e e e e e e e e ",
"                                                                                                    "
};
