/* XPM */
static char *result[] = {
/* columns rows colors chars-per-pixel */
"50 50 184 2 ",
"   c #000000",
".  c #060801",
"X  c #0B0B01",
"o  c #090909",
"O  c #130C00",
"+  c #0E1101",
"@  c #0F1108",
"#  c #131402",
"$  c #1B1501",
"%  c #161A02",
"&  c #1B1C02",
"*  c #131409",
"=  c #151515",
"-  c #201400",
";  c #241901",
":  c #2A1B01",
">  c #331E00",
",  c #1D2303",
"<  c #242303",
"1  c #222804",
"2  c #2B2C04",
"3  c #20200A",
"4  c #282708",
"5  c #282808",
"6  c #2D2401",
"7  c #342401",
"8  c #3D2B01",
"9  c #372601",
"0  c #273005",
"q  c #2C3405",
"w  c #2D3805",
"e  c #343504",
"r  c #343A06",
"t  c #3C3B05",
"y  c #3B3406",
"u  c #272718",
"i  c #2A2413",
"p  c #372814",
"a  c #2E2D25",
"s  c #262626",
"d  c #35312A",
"f  c #393923",
"g  c #373635",
"h  c #402600",
"j  c #442800",
"k  c #4C2D01",
"l  c #512F00",
"z  c #4F3A01",
"x  c #543301",
"c  c #5F3701",
"v  c #543B02",
"b  c #5B3B01",
"n  c #5B380C",
"m  c #413018",
"M  c #643C00",
"N  c #683D00",
"B  c #364306",
"V  c #394406",
"C  c #3D4B07",
"Z  c #454506",
"A  c #444C07",
"S  c #4B4B06",
"D  c #494305",
"F  c #425107",
"G  c #4D5407",
"H  c #465608",
"J  c #475808",
"K  c #485908",
"L  c #525307",
"P  c #535509",
"I  c #525E09",
"U  c #4E4E1A",
"Y  c #6B4400",
"T  c #664308",
"R  c #744400",
"E  c #7A4703",
"W  c #7A4900",
"Q  c #704D01",
"!  c #6B4818",
"~  c #6B4B12",
"^  c #546209",
"/  c #596509",
"(  c #5D6909",
")  c #666609",
"_  c #626C0A",
"`  c #696909",
"'  c #67710A",
"]  c #6A720A",
"[  c #72740A",
"{  c #757A0B",
"}  c #7A7E0B",
"|  c #5E5E3D",
" . c #795A30",
".. c #6B5735",
"X. c #4D4D4C",
"o. c #585858",
"O. c #665946",
"+. c #6A6558",
"@. c #696969",
"#. c #777767",
"$. c #834A00",
"%. c #8B4E00",
"&. c #825200",
"*. c #8C5100",
"=. c #905100",
"-. c #9D5C00",
";. c #925E00",
":. c #A45F00",
">. c #9A6107",
",. c #9B6317",
"<. c #A66100",
"1. c #AE6400",
"2. c #A36900",
"3. c #B06600",
"4. c #B56B00",
"5. c #BB6E00",
"6. c #B77400",
"7. c #BB7300",
"8. c #805D29",
"9. c #C17400",
"0. c #C47C00",
"q. c #C97A00",
"w. c #D07D00",
"e. c #83745E",
"r. c #917956",
"t. c #817C76",
"y. c #7D810B",
"u. c #84850C",
"i. c #8A8A0C",
"p. c #B9811F",
"a. c #D18200",
"s. c #DB8600",
"d. c #DB8B00",
"f. c #CA881B",
"g. c #E28C00",
"h. c #E79200",
"j. c #ED9400",
"k. c #EF9801",
"l. c #F49B00",
"z. c #FA9E00",
"x. c #F29C0A",
"c. c #F29E10",
"v. c #FEA200",
"b. c #FEA70D",
"n. c #FFAC1B",
"m. c #EFA524",
"M. c #FEAF27",
"N. c #F0AB35",
"B. c #BD9354",
"V. c #B9975A",
"C. c #B4874A",
"Z. c #FFBF4F",
"A. c #FEB940",
"S. c #EFBE67",
"D. c #FEC86A",
"F. c #EDC279",
"G. c #838383",
"H. c #979795",
"J. c #B0A188",
"K. c #A3A39D",
"L. c #B9AC96",
"P. c #B3ADA4",
"I. c #B7B7B7",
"U. c #B9B8B7",
"Y. c #B9B8B6",
"T. c #C6AF90",
"R. c #C4BEB5",
"E. c #C6B9A8",
"W. c #FFD283",
"Q. c #DCC6A8",
"!. c #EFD6AB",
"~. c #FEDDA2",
"^. c #E9D9BE",
"/. c #FFE1AD",
"(. c #C1C1C1",
"). c #D0D0CE",
"_. c #DBDADA",
"`. c #FFEDCC",
"'. c #E6E3DE",
"]. c #ECE4D8",
"[. c #FEF2DC",
"{. c #EFEDE8",
"}. c #E6E6E4",
"|. c #F9F5ED",
/* pixels */
"i.i.i.i.i.i.i.i.i.i.i.i.i.i.i.i.i.i._ J K ' y.i.i.i.i.i.i.i.i.i.i.i.i.i.i.i.i.i.i.i.i.i.i.i.i.i.i.i.",
"i.i.i.i.i.i.i.i.i.i.i.i.i.i.i.i.i.i._ J K _ u.i.i.i.i.i.i.i.i.i.i.i.i.i.i.i.i.i.i.i.i.i.i.i.i.i.i.i.",
"i.i.i.i.i.i.i.i.i.i.i.i.i.i.i.i.i.i.( K K ' u.i.i.i.i.i.i.i.i.i.i.i.i.i.i.i.i.i.i.i.i.i.i.i.i.i.i.i.",
"i.i.i.i.i.i.i.i.y.^ K K J J K K K K K K K ' u.i.i.i.i.i.i.i.i.i.i.i.i.i.i.i.i.i.i.i.i.i.i.i.i.i.i.i.",
"i.i.i.i.i.i.i.i.y.I J K J K K J J K K K K ' u.i.i.i.i.i.i.i.i.i.i.i.i.i.i.i.i.i.i.i.i.i.i.i.i.i.i.i.",
"i.i.i.i.i.i.i.i.y.^ J K K K K J K K K K J _ u.i.i.i.i.i.i.i.i.i.i.i.i.i.i.i.i.i.i.i.i.i.i.i.i.i.i.i.",
"/ / ] i.i.u._ / _ { y.y.y.y.y.^ K K K K K _ y.i.y.( ( ] u.i.i.i.i.i.i.i.i.i.i.i.i.i.i.i.i.i.i.i.i.i.",
"K K ' i.i.y.K J ^ y.u.i.i.u.i.( K K J K K ' u.i.] ^ K _ y.i.i.i.i.i.i.i.i.i.i.i.i.i.i.i.i.i.i.i.i.i.",
"K J ' i.i.y.K J / y.i.i.i.i.i.( K J K K J ' u.i.{ I K _ u.i.i.i.i.i.i.i.i.i.i.i.i.i.i.i.i.i.i.i.i.i.",
"} y.] / / ( } y.y.i.i.i.i.i.i.( K K K J J ' u.i.y.y.y.] ( / ( y.i.i.i.i.u.[ ^ ( [ i.i.i.i.i.i.i.i.i.",
"i.i.] K J / u.i.i.i.i.i.i.i.i.( K K J J J ' y.i.i.i.i.{ ^ J ^ { i.i.i.i.y._ K ^ _ i.i.i.i.i.i.i.i.i.",
"i.i.] K J / u.i.i.i.i.i.i.i.i.( K J H H H ( y.u.u.u.u.] K J ^ { i.i.i.i.u.( K K _ i.i.i.i.i.i.i.i.i.",
"] ] ' ' ] ] ] ] [ u.i.i.i.i.i.{ ' _ V , , e A P P P P H C B C ^ ' ' ' ' ' ' ] ] { i.i.i.i.i.i.i.i.i.",
"K K ' i.i.} ^ K / y.i.i.i.i.i.i.i.} 2     + , , , , , , , 1 q V F K K K ^ { i.i.i.i.i.i.i.i.i.i.i.i.",
"K K ] i.i.y.K K / y.i.i.i.i.i.i.u.} 2   . o X * @ * O + X + , w C K K K ^ { i.i.i.i.i.i.i.i.i.i.i.i.",
"K K / ' ] _ K K I _ ] ] ] ] ] G Z t #   o = s g d p : $ O . % q C J K K K / ] ] ] ] ] ' ' ' ' Z S S ",
"K K K K K K K K K K K K K K C %         o g @.#.t. .T k ; O % q C H K K K K J J K J K K K J F   . o ",
"K K K K K K K K K K K K K K K ,     o o u o.H.R.T.C.,.R h $ & q C H H J K K J J K K K K K K H     o ",
"K K ^ / / / ( / / ^ / / ( / / w ; & u d X.G.(.].Q.B.,.E x 9 7 t A G ^ ^ / / / / / / / / / / I 1 , 1 ",
"K K ] y.i.i.i.i.i.i.i.i.i.i.;.` P U | #.H.I._.'.E.r.! c N M b z Z K _ ;.i.i.i.i.i.i.i.i.i.i.i.i.i.i.",
"K K ' y.i.i.i.i.i.i.i.i.i.i.[ L r g @.K.).}.|.'.P.+.m k R %.E x 7 e P [ u.i.i.i.i.i.i.i.i.i.i.i.i.i.",
"K K ' i.i.i.i.i.i.i.i.i.i.u.[ S 5 a @.U.|.|.[.^.J.O.p k $.:.*.x ; < S [ u.i.i.i.i.i.i.u.} { } y.} } ",
"K K ' i.i.i.i.i.i.i.i.i.i.u.[ S 5 a @.U.].`.~.F.B.8.n N =.<.*.k ; < S [ i.i.i.i.i.i.i.{ J K K K K K ",
"K K ' i.i.i.i.i.i.i.i.i.i.u.[ S 5 a @.U.]./.D.N.f.-.E $.:.<.*.x ; 6 S [ u.i.i.i.i.i.i.{ J J K K J K ",
"K K ' i.i.i.i.i.i.i.i.i.i.u.[ S 4 a +.L.!.W.A.c.a.<.%.=.:.3.%.l ; < S ] u.i.i.i.i.i.i.{ J K K K K K ",
"K K ' i.i.i.i.i.y.^ J ^ y.u.[ r & i ..V.S.Z.M.c.a.<.%.=.:.3.%.l ; < e C H K K K J J J K K K K J K K ",
"K K ' y.i.i.i.i.y.I J / y.u.] B % : ~ p.m.n.b.k.a.<.%.%.:.3.*.l ; 3 w C H K K K J K K K K K K K K K ",
"K K ' i.i.i.i.i.y.^ J ^ y.i.[ t % : Y 6.k.v.v.l.s.4.-.:.3.3.*.l ; ; w C H K K K K K J K K K K K J K ",
"K K K K K / y.i.y.I J J J H C 0 % 6 Y 6.k.v.v.z.h.a.9.5.9.4.%.l - % q V J K K J K K K K K K K K K K ",
"K K K K K / i.i.y.I J J J H C 0 % : Y 6.k.v.v.v.z.k.g.s.w.5.=.l - % 0 C J K K K K J K K K J K J J K ",
"K K C K K / y.i.y.I K K K H C q < 6 T 2.a.h.l.z.z.z.j.s.9.2.E k ; , w C H J K K K K K J K K K J K K ",
"% % % % * , ^ ( / K K K K J F B q e D Q ;.7.s.k.l.j.s.9.;.E v j q q B F J K K K J K K K K K K K K K ",
".         # C K K K K J K J J C C V y 8 z &.0.j.j.d.q.-.N j 7 q V C A H K K K K K K K K K K K K J J ",
".         # F K K K J J K K J J F C 0 & ; b >.0.q.7.:.E j - & q C H H H K K K K K K K K K K K K J J ",
"` ) ` ` ` ` } y.y.} } } y.{ y.y.} ` A ; $ 9 M &.$.E M k : O < D ` { } { y.y.y.y.y.y.y.y.y.y.y.K J J ",
"i.i.i.i.i.i.i.i.i.i.i.i.i.i.i.i.u.{ L 6 O O : 7 9 > : - O X < L { i.i.i.i.i.i.i.y.i.y.i.y.i.y.K J J ",
"i.i.i.i.i.i.i.i.i.i.i.i.i.i.i.i.i.} L e $ # # # # $ $ # # & e L } u.i.i.i.i.i.i.i.i.i.i.i.i.i.K F J ",
"i.i.i.i.i.u.] ] ] i.i.i.i.i.i.i.u.} ` L z q 1 , 2 r t t r z L ` ;.u.i.i.i.i.i.i.i.i.i.i.i.i.y.y.y.y.",
"i.i.i.i.i.y.K K ^ u.i.i.i.i.i.i.i.u.} [ _ G C B S ) ) ) _ ` [ } y.i.i.i.i.i.i.i.i.i.i.i.i.i.y.i.i.i.",
"i.i.i.i.i.} ^ K ^ u.i.i.i.i.i.i.i.i.u.u.u.] K J ( } u.u.u.u.u.u.i.i.i.i.i.i.i.i.i.i.i.i.i.i.i.i.y.y.",
"i.i.i.i.i.u.] ' ] ] ' ' ] ' ] y.i.i.{ ] ] ( K K ' u.i.i.i.i.y.{ _ y.y.i.y.y.' y.y.i.i.i.i.i.i.y.y.( ",
"i.i.i.i.i.i.i.i.y.I K K K K K y.i.i._ K K J J J _ y.i.i.i.i.y.( J ^ y.y.y.( J K ' i.i.i.i.i.y.J K K ",
"i.i.i.i.i.i.u.i.y.^ J K K K K { i.i._ K K K K J _ y.i.i.i.i.y.( J ^ y.y.y.' K K _ y.i.i.i.y.y.K K K ",
"i.i.y.y.y.y.y.y.{ ( / ^ K K K { i.i.( J K C C B ^ y.i.u.y.y.{ ( / ( y.y.y.y.( ( y.y.i.y.y.y.y.K K J ",
"i.i.] K K K K J / u.i.y.^ K K y.i.i.( J K 0 X   r { i.{ I K ^ { y.i.i.i.i.i.i.i.i.i.y.' K K K K K K ",
"i.i.' ^ J K K K ^ y.i.y.^ K J { i.i._ J K 0 X   r } i.{ ^ K ^ y.i.i.i.i.i.y.i.i.i.y.y.y.K K K K K K ",
"y.y._ K K K K K ^ { y.] I K K ' y.} G B B 1 .   q ` } ` I J ^ ] y.y.y.y.y.y.y.y.y.y.y.y.K K K K K K ",
"J K J K K K K K K K K K K K K K K K ,           , F K K K K K K K K K K K K K K K K K K K K K K J K ",
"J J K K K J K K J K K K J K J K K K ,           , C K K K K K K K K K K K K J K K K J K K K K K K K ",
"J J J J K K K K K K K K K K K K K K ,           , C K K K K K K K K K K K K K K K K K K K K J K K K "
};
