/* XPM */
static char *result[] = {
/* columns rows colors chars-per-pixel */
"50 50 184 2 ",
"   c #000000",
".  c #060801",
"X  c #0B0C02",
"o  c #0A0B08",
"O  c #090703",
"+  c #130C00",
"@  c #0E1102",
"#  c #0F1108",
"$  c #121402",
"%  c #191501",
"&  c #171A02",
"*  c #1C1B02",
"=  c #13150A",
"-  c #161615",
";  c #201400",
":  c #241D01",
">  c #2A1C00",
",  c #331E00",
"<  c #221F1A",
"1  c #1D2303",
"2  c #1C200B",
"3  c #242403",
"4  c #2C2302",
"5  c #222804",
"6  c #2A2C04",
"7  c #282708",
"8  c #282808",
"9  c #352301",
"0  c #392E02",
"q  c #273005",
"w  c #2C3405",
"e  c #2C3707",
"r  c #343504",
"t  c #343A06",
"y  c #3C3C05",
"u  c #363609",
"i  c #2D2614",
"p  c #2D2D25",
"a  c gray16",
"s  c #262722",
"d  c #383822",
"f  c #373737",
"g  c #3C3C3C",
"h  c #452800",
"j  c #4A2E00",
"k  c #4E3D02",
"l  c #4F3500",
"z  c #583700",
"x  c #4B3919",
"c  c #683D00",
"v  c #633F00",
"b  c #364306",
"n  c #394306",
"m  c #3D4B07",
"M  c #3C4A08",
"N  c #3E402D",
"B  c #454506",
"V  c #444C07",
"C  c #4B4B06",
"Z  c #4A4A0A",
"A  c #5E4A03",
"S  c #425107",
"D  c #4D5407",
"F  c #465608",
"G  c #475808",
"H  c #485908",
"J  c #4A5409",
"K  c #535307",
"L  c #535509",
"P  c #525E09",
"I  c #474A1B",
"U  c #644401",
"Y  c #6B4400",
"T  c #6E4C01",
"R  c #794900",
"E  c #734901",
"W  c #765204",
"Q  c #6B4B12",
"!  c #546209",
"~  c #596509",
"^  c #5D6909",
"/  c #666609",
"(  c #626C0A",
")  c #696909",
"_  c #67710A",
"`  c #6A720A",
"'  c #72740A",
"]  c #757A0B",
"[  c #7A7E0B",
"{  c #5E5E3D",
"}  c #6B5735",
"|  c #50514C",
" . c #585858",
".. c #575450",
"X. c #69655A",
"o. c #78674C",
"O. c #686868",
"+. c #777767",
"@. c #825200",
"#. c #8B5B08",
"$. c #9C5C00",
"%. c #915E00",
"&. c #996100",
"*. c #9F6800",
"=. c #9C6114",
"-. c #A06100",
";. c #A26801",
":. c #AD6601",
">. c #B86F00",
",. c #B16A06",
"<. c #B77400",
"1. c #B97500",
"2. c #BC790F",
"3. c #A66D1D",
"4. c #9B702D",
"5. c #A07239",
"6. c #C47502",
"7. c #C37C02",
"8. c #CC7A00",
"9. c #D07F00",
"0. c #7D810B",
"q. c #84850C",
"w. c #8A8A0C",
"e. c #B9811F",
"r. c #CF8400",
"t. c #D68100",
"y. c #D78705",
"u. c #E28D00",
"i. c #E88F00",
"p. c #E79100",
"a. c #EB9100",
"s. c #EF9801",
"d. c #F19700",
"f. c #F59B00",
"g. c #FA9D01",
"h. c #E7991B",
"j. c #FFA200",
"k. c #FDA40C",
"l. c #FDA816",
"z. c #C08129",
"x. c #EFA524",
"c. c #FFB027",
"v. c #F8B035",
"b. c #B08246",
"n. c #A98552",
"m. c #B9975A",
"M. c #B6956F",
"N. c #BA9D79",
"B. c #DEA751",
"V. c #FFB940",
"C. c #FFBF4F",
"Z. c #EFBE67",
"A. c #FEC86A",
"S. c #F6C779",
"D. c gray56",
"F. c #848484",
"G. c #969591",
"H. c #9A9A9A",
"J. c #AE9F8C",
"K. c #A3A39D",
"L. c #B9AC96",
"P. c #B7B7B7",
"I. c #B9B8B7",
"U. c #B9B8B6",
"Y. c #D6B688",
"T. c #CFBBA4",
"R. c #FFD283",
"E. c #D9CAB9",
"W. c #EFD6AB",
"Q. c #FEDDA2",
"!. c #F3DFBE",
"~. c #FFE1AD",
"^. c #C6C5C4",
"/. c #D0D0CE",
"(. c #D9D8D7",
"). c #E6DCD0",
"_. c #FFEDCD",
"`. c #EEE6D9",
"'. c #FEF2DC",
"]. c #EEECE9",
"[. c #E6E6E4",
"{. c #F1EBE2",
"}. c #F4F1ED",
"|. c #FFF9EC",
/* pixels */
"w.w.w.w.w.w.w.w.w.w.w.w.w.w.w.w.w.w.( G H _ 0.w.w.w.w.w.w.w.w.w.w.w.w.w.w.w.w.w.w.w.w.w.w.w.w.w.w.w.",
"w.w.w.w.w.w.w.w.w.w.w.w.w.w.w.w.w.w.( G H ( q.w.w.w.w.w.w.w.w.w.w.w.w.w.w.w.w.w.w.w.w.w.w.w.w.w.w.w.",
"w.w.w.w.w.w.w.w.w.w.w.w.w.w.w.w.w.w.^ H H _ q.w.w.w.w.w.w.w.w.w.w.w.w.w.w.w.w.w.w.w.w.w.w.w.w.w.w.w.",
"w.w.w.w.w.w.w.w.0.! H H G G H H H H H H H _ q.w.w.w.w.w.w.w.w.w.w.w.w.w.w.w.w.w.w.w.w.w.w.w.w.w.w.w.",
"w.w.w.w.w.w.w.w.0.P G H H H H H H G H H H _ q.w.w.w.w.w.w.w.w.w.w.w.w.w.w.w.w.w.w.w.w.w.w.w.w.w.w.w.",
"w.w.w.w.w.w.w.w.0.! G H H H H H H H H H G ( q.w.w.w.w.w.w.w.w.w.w.w.w.w.w.w.w.w.w.w.w.w.w.w.w.w.w.w.",
"~ ~ ` w.w.q.( ~ ( ] 0.0.0.0.0.! H H H H H ( 0.w.0.^ ^ ` q.w.w.w.w.w.w.w.w.w.w.w.w.w.w.w.w.w.w.w.w.w.",
"H H _ w.w.0.H G ! 0.q.w.w.q.w.~ H H H G H _ q.w.` ! H ( 0.w.w.w.w.w.w.w.w.w.w.w.w.w.w.w.w.w.w.w.w.w.",
"H G _ w.w.0.H G ~ 0.w.w.w.w.w.^ H H H H H ( q.w.] P H _ 0.w.w.w.w.w.w.w.w.w.w.w.w.w.w.w.w.w.w.w.w.w.",
"[ 0.` ~ ~ ^ [ 0.0.w.w.w.w.w.w.^ H H H H H ( q.w.0.0.0.` ^ ~ ^ 0.w.w.w.w.q.` ~ ^ ` w.w.w.w.w.w.w.w.w.",
"w.w.` H G ~ q.w.w.w.w.w.w.w.w.^ G H H H H _ q.w.w.w.w.] ! G ~ ] w.w.w.w.q.^ H P ( w.w.w.w.w.w.w.w.w.",
"w.w.` H G ~ q.w.w.w.w.w.w.w.w.^ H G F F F ^ 0.q.q.q.q.` H F ! ] w.w.w.w.0._ H H ( w.w.w.w.w.w.w.w.w.",
"` ` _ _ ` ` ` ` ' q.w.w.w.w.w.] _ ( n 1 1 e C D L D D F M b S ! _ _ _ ` ` _ ` ` [ w.w.w.w.w.w.w.w.w.",
"H H _ w.w.[ ! H ~ 0.w.w.w.w.w.w.w.[ 6     X 1 1 1 1 1 1 1 1 w b S H G H ! ] w.w.w.w.w.w.w.w.w.w.w.w.",
"H H ` w.w.0.H H ~ 0.w.w.w.w.w.w.q.] 6     o # - = = = # # @ 1 e m H G G ! ' w.w.w.w.w.w.w.w.w.w.w.w.",
"H H ~ _ ` ( H H P ( ` ` ` ` ` D B y %   o - a g g N f a - o & w M G G G ! ~ ` _ ` ` ` ` ` ` ( B V Z ",
"H H H H H H H H G H H H H H H &       O - f O.F.D.D.F.O.f - = e M G G H H H G G H H H H H H F     . ",
"H H H H H H H H H H H H H H G 1       O i ..D.^./.(.^.H. .s * e M F G G H H G G G H G H H G S     o ",
"H H ! ~ ~ ~ ^ ! ~ ~ ~ ~ ~ ! ~ e * : > 9 x o.J./.`.}.].^.M.| N I J J ! ~ ~ ~ ~ ~ ~ ~ ~ ~ ~ ~ ! 1 5 3 ",
"H H _ q.w.w.w.w.w.w.w.w.w.w.#.) K Z A W #.4.n.N.T.).].(.P.G.+...I J _ #.w.w.w.w.w.w.w.w.w.w.w.w.w.w.",
"H G _ q.w.w.w.w.w.w.w.w.w.w.] K r 0 U ;.7.2.3.5.M.E.{.].(./.K.O.d u L ] w.w.w.w.w.w.w.w.w.w.w.w.w.w.",
"H H _ w.w.w.w.w.w.w.w.w.w.q.' C 7 > Y <.y.t.:.=.b.Y.!.'.}.].P.O.p 8 C ' q.w.w.w.w.w.w.q.[ [ [ 0.[ [ ",
"H H _ q.w.w.w.w.w.w.w.w.w.q.' C 4 4 Y 1.p.y.6.,.e.B.S.~._.].P.O.p 7 C ' q.w.w.w.w.w.w.] G H G H G G ",
"H H _ w.w.w.w.w.w.w.w.w.q.q.' C 4 4 Y 1.p.u.8.6.y.h.v.A.~.`.P.O.p 7 C ' q.w.w.w.w.w.w.] G G H H H G ",
"H H _ q.w.w.w.w.q.w.w.w.w.q.' C 4 , Y 1.a.a.9.8.y.p.l.v.R.W.L.X.p 7 C ` q.w.w.w.w.w.w.] H H H H H G ",
"H H _ w.w.w.w.w.0.! H ! 0.w.' y & > Y 1.a.a.9.8.t.p.k.c.C.A.m.} i 3 r M J H H H H G G G H H G H H H ",
"H H _ w.w.w.w.w.0.P H ! 0.q.' t & > Y 1.i.i.9.9.t.a.j.k.l.x.2.Q 4 3 e m F H H H H G H H H G H H H G ",
"H H _ q.w.w.w.w.0.! H ! 0.q.' b & > Y 1.i.i.9.9.t.a.g.j.k.s.2.U > 3 r m F H H H H H H H H H H G H H ",
"H H H H H ~ 0.w.0.P H H G F m q & > Y <.p.i.t.8.t.a.j.j.j.s.<.Y > & q m G H G H H H H G G H H H H H ",
"H H H H H ~ q.w.0.P H H G F m q & > Y 1.p.p.9.8.t.a.f.j.j.s.<.Y > & q M G H H H H H H H H H H H H H ",
"H H H H G ^ q.w.0.P H H G G m e 3 4 U ;.6.t.8.8.t.p.f.f.p.t.*.U 4 1 e M G G H H H G H H H H H H H H ",
"@ & $ $ $ 1 ! ^ ~ H H G H G S b w r k T %.-.,.6.t.a.d.y.<.%.T B r e b S G G H H H H H H H G H H H G ",
".         $ S G H H G H H G G m m n r 0 j Y -.6.9.i.i.6.@.l 0 r n m V S G H H H G H H H H H H H H G ",
"          $ S H H H G G H H G G F m w * ; h c $.6.8.7.$.z > * w V F G G G H H H H H H H H H H H H H ",
") ) ) ( ) ) [ 0.0.[ [ [ [ [ 0.0.] ) V 3 % > h c R @.@.U 9 % 3 B ) ] [ [ 0.0.0.0.0.0.0.0.0.0.0.H H H ",
"w.w.w.w.w.w.w.w.w.w.w.w.w.w.w.w.q.' K 7 X + ; > , , 9 > + + 7 K ] w.w.w.w.w.w.w.0.w.0.w.0.w.0.H G H ",
"w.w.w.w.w.w.w.w.w.w.w.w.w.w.w.w.w.0.H r * $ X $ % % % % % * r K ] q.w.w.w.w.w.w.w.w.w.w.w.w.w.H G H ",
"w.w.w.w.w.q.` ` ` q.w.w.w.w.w.w.w.%.( D y w 3 1 6 r y r u k K ) #.q.w.w.w.w.w.w.w.w.w.w.w.w.0.0._ 0.",
"w.w.w.w.w.[ P H ~ q.w.w.w.w.w.w.w.q.[ ' ) L m b D / / / ( / ' [ w.w.w.w.w.w.w.w.w.w.w.w.w.w.0.w.w.w.",
"w.w.w.w.w.0.H H ~ 0.w.w.w.w.w.w.w.w.q.q.q.` H G ^ [ q.q.q.q.q.q.w.w.w.w.w.w.w.w.w.w.w.w.w.w.w.w.w.0.",
"w.w.w.w.w.0._ 0.` ` ` ` ` ` ` 0.w.w.[ ` ` ^ H H _ q.w.w.w.w.0.0._ 0.0.w.0.0._ 0.0.w.w.w.w.w.w.0._ _ ",
"w.w.w.w.w.w.0.w.0.P H H G H G 0.w.w.^ H H G H H ( 0.w.w.w.w.0.^ G ! 0.0.0.^ G H _ w.w.w.w.w.0.G H G ",
"w.w.w.w.w.w.0.w.0.P H H H H G ] w.w.( G H H H G ( 0.w.w.w.w.0.^ G H 0.0.0._ H H ( 0.w.w.w.0.0.H H H ",
"w.w.0.0.0.0.0.0.] ^ ~ ! H H m 0.w.w.^ H H m M b ! 0.w.q.0.0.` _ ! _ 0.0.0.0.^ ^ 0.0.w.0.0.0.0.H H H ",
"w.w.0.G H H H H ^ 0.w.0.~ H H 0.w.w.^ G H w .   u ] w.] ! G ! ] 0.w.w.w.w.w.w.w.w.w.0.0.H H H H G H ",
"w.w._ G H H H H ~ 0.w.0.! H m 0.w.w.( G H e .   t ] w.] ! H ! ] w.w.w.w.w.0.w.w.w.0.0.0.H H H H H H ",
"0.0.( H H H H H ! 0.0.` ! H H _ 0.[ D b b 1 .   e ) [ ` P H ! ` 0.0.0.0.0.0.0.0.0.0.0._ H H H H H H ",
"G H H H H H H H H m H H H H H H H H 1           1 V H J H H H H H H H H H H H H H H H H H H H H H G ",
"G G H H H H G H H H H H H H H H H H 1           1 m H H H H H H H H H H H H H H H H H H H H H H H H ",
"H G H G H H H H H H G H H H G H H H 1 .         1 m H H H H H H H H H H H H H H H H H H H H H H H H "
};
