/* XPM */
static char *result[] = {
/* columns rows colors chars-per-pixel */
"50 50 50 1 ",
"  c #58617B",
". c #4E4F61",
"X c #321E16",
"o c #505266",
"O c #22110D",
"+ c #382319",
"@ c #755338",
"# c #342017",
"$ c #21110D",
"% c #2D1B14",
"& c #4F3625",
"* c #4B3323",
"= c #3B281C",
"- c #342319",
"; c #3C291D",
": c #4C3424",
"> c #2B1913",
", c #311F15",
"< c #5E422D",
"1 c #573D2A",
"2 c #3F2B1E",
"3 c #3A271C",
"4 c #36251A",
"5 c #241811",
"6 c #1F150F",
"7 c #312218",
"8 c #563C29",
"9 c #2E1C14",
"0 c #6A4B33",
"q c #453021",
"w c #422D1F",
"e c #39271B",
"r c #0C0805",
"t c black",
"y c #221810",
"u c #664931",
"i c #251510",
"p c #2F2116",
"a c #2B1E14",
"s c #1C130D",
"d c #150E0A",
"f c #1B120D",
"g c #20160F",
"h c #17100B",
"j c #050302",
"k c #0E0907",
"l c #291D13",
"z c #24140F",
"x c #180D09",
"c c #190E0A",
/* pixels */
" .XXXXXXXXXXXXXXXXXXXXXXXXXXXXXXXXXXXXXXXXXXXXXXXo",
"O+@@@@@@@@@@@@@@@@@@@@@@@@@@@@@@@@@@@@@@@@@@@@@@@#",
"O+@@@@@@@@@@@@@@@@@@@@@@@@@@@@@@@@@@@@@@@@@@@@@@@#",
"O+@@@@@@@@@@@@@@@@@@@@@@@@@@@@@@@@@@@@@@@@@@@@@@@#",
"O+@@@@@@@@@@@@@@@@@@@@@@@@@@@@@@@@@@@@@@@@@@@@@@@#",
"O+@@@@@@@@@@@@@@@@@@@@@@@@@@@@@@@@@@@@@@@@@@@@@@@#",
"O+@@@@@@@@@@@@@@@@@@@@@@@@@@@@@@@@@@@@@@@@@@@@@@@#",
"O+@@@@@@@@@@@@@@@@@@@@@@@@@@@@@@@@@@@@@@@@@@@@@@@#",
"$%&&*=---------------------------------------;:&&>",
"$%&&*=---------------------------------------;:&&>",
"$%&&*=---------------------------------------;:&&>",
"$,<<12--322456666666666666666666666666666666678<<9",
"O+@@0q--w&&erttttttttttttttttttttttttttttttttyu@@#",
"O+@@0q--w&&erttttttttttttttttttttttttttttttttyu@@#",
"O+@@0q--w&&erttttttttttttttttttttttttttttttttyu@@#",
"O+@@0q--w&&erttttttttttttttttttttttttttttttttyu@@#",
"O+@@0q--w&&erttttttttttttttttttttttttttttttttyu@@#",
"O+@@0q--w&&erttttttttttttttttttttttttttttttttyu@@#",
"O+@@0q--w&&erttttttttttttttttttttttttttttttttyu@@#",
"O+@@0q--w&&erttttttttttttttttttttttttttttttttyu@@#",
"O+@@0q--w&&erttttttttttttttttttttttttttttttttyu@@#",
"O+@@0q--w&&erttttttttttttttttttttttttttttttttyu@@#",
"O+@@0q--w&&erttttttttttttttttttttttttttttttttyu@@#",
"O+@@0q--w&&erttttttttttttttttttttttttttttttttyu@@#",
"O+@@0q--w&&erttttttttttttttttttttttttttttttttyu@@#",
"O+@@0q--w&&erttttttttttttttttttttttttttttttttyu@@#",
"O+@@0q--w&&erttttttttttttttttttttttttttttttttyu@@#",
"O+@@0q--w&&erttttttttttttttttttttttttttttttttyu@@#",
"O+@@0q--w&&erttttttttttttttttttttttttttttttttyu@@#",
"O+@@0q--w&&erttttttttttttttttttttttttttttttttyu@@#",
"O+@@0q--w&&erttttttttttttttttttttttttttttttttyu@@#",
"O+@@0q--w&&erttttttttttttttttttttttttttttttttyu@@#",
"O+@@0q--w&&erttttttttttttttttttttttttttttttttyu@@#",
"O+@@0q--w&&erttttttttttttttttttttttttttttttttyu@@#",
"O+@@0q--w&&erttttttttttttttttttttttttttttttttyu@@#",
"O+@@0q--w&&erttttttttttttttttttttttttttttttttyu@@#",
"O+@@0q--w&&erttttttttttttttttttttttttttttttttyu@@#",
"O+@@0q--w&&erttttttttttttttttttttttttttttttttyu@@#",
"O+@@0q--w&&erttttttttttttttttttttttttttttttttyu@@#",
"O+@@0q--w&&erttttttttttttttttttttttttttttttttyu@@#",
"O+@@0q--w&&erttttttttttttttttttttttttttttttttyu@@#",
"O+@@0q--w&&erttttttttttttttttttttttttttttttttyu@@#",
"O+@@0q--w&&erttttttttttttttttttttttttttttttttyu@@#",
"O+@@0q--w&&erttttttttttttttttttttttttttttttttyu@@#",
"O+@@0q--w&&erttttttttttttttttttttttttttttttttyu@@#",
"O+@@0q--w&&erttttttttttttttttttttttttttttttttyu@@#",
"O+@@0q--w&&erttttttttttttttttttttttttttttttttyu@@#",
"$ippasddfgghjttttttttttttttttttttttttttttttttklppz",
"$xtttttttttttttttttttttttttttttttttttttttttttttttc",
"$xtttttttttttttttttttttttttttttttttttttttttttttttc"
};
