/* XPM */
static char *abbd3db8b76b42c5c060500ebcf7db79VSWdRhiuMfDXwJOi[] = {
/* columns rows colors chars-per-pixel */
"50 50 107 2 ",
"   c #667598",
".  c #5A637F",
"X  c #31282D",
"o  c #21110D",
"O  c #2E2327",
"+  c #555C75",
"@  c #3D3945",
"#  c #413940",
"$  c #4E392E",
"%  c #533927",
"&  c #4F392D",
"*  c #42393D",
"=  c #301D15",
"-  c #61442E",
";  c #755338",
":  c #654730",
">  c #362218",
",  c #2C1A13",
"<  c #503625",
"1  c #5E422D",
"2  c #5C402C",
"3  c #513826",
"4  c #4E3625",
"5  c #4F3726",
"6  c #5C402B",
"7  c #311D15",
"8  c #291811",
"9  c #452D1F",
"0  c #4F3625",
"q  c #4C3324",
"w  c #39261B",
"e  c #342319",
"r  c #36251A",
"t  c #4B3323",
"y  c #472F20",
"u  c #2D1A13",
"i  c #2B1912",
"p  c #4A3223",
"a  c #573C29",
"s  c #523927",
"d  c #3A271C",
"f  c #37251A",
"g  c #39271B",
"h  c #362419",
"j  c #37261A",
"k  c #38261B",
"l  c #352319",
"z  c #523827",
"x  c #4D3424",
"c  c #2E1C14",
"v  c #6C4C34",
"b  c #3F2B1E",
"n  c #462F21",
"m  c #3C291C",
"M  c #35241A",
"N  c #432D20",
"B  c #442F20",
"V  c #4B3324",
"C  c #39271C",
"Z  c #6B4B33",
"A  c #4C3323",
"S  c #483122",
"D  c #402C1F",
"F  c #503726",
"G  c #8D7348",
"H  c #8C6E43",
"J  c #886236",
"K  c #865E31",
"L  c #7A552E",
"P  c #3D2A1C",
"I  c #E9CE7C",
"U  c #E5C26F",
"Y  c #DCA34F",
"T  c #D99944",
"R  c #C1873D",
"E  c #46301E",
"W  c #523826",
"Q  c #C0873D",
"!  c #503725",
"~  c #76522A",
"^  c #6C4B28",
"/  c #3B281B",
"(  c #4D3524",
")  c #452F21",
"_  c #352419",
"`  c #422D20",
"'  c #1F110D",
"]  c #19110C",
"[  c #17110B",
"{  c #16100A",
"}  c #0C0906",
"|  c #0A0705",
" . c #0E0906",
".. c #100B07",
"X. c #0C0805",
"o. c #0E0A06",
"O. c #0B0705",
"+. c #0F0A07",
"@. c #0B0805",
"#. c #150F0A",
"$. c #19110B",
"%. c #1E110D",
"&. c #1B0E0B",
"*. c #080403",
"=. c black",
"-. c #060302",
";. c #190D0A",
/* pixels */
"    . X o o o o o o o o o o o o o o o o o o o o o o o o o o o o o o o o o o o o o o o o o O +       ",
"    . X o o o o o o o o o o o o o o o o o o o o o o o o o o o o o o o o o o o o o o o o o O +       ",
"    . X o o o o o o o o o o o o o o o o o o o o o o o o o o o o o o o o o o o o o o o o o O +       ",
"@ @ # $ % % % % % % % % % % % % % % % % % % % % % % % % % % % % % % % % % % % % % % % % % & * @ @ @ ",
"o o = - ; ; ; ; ; ; ; ; ; ; ; ; ; ; ; ; ; ; ; ; ; ; ; ; ; ; ; ; ; ; ; ; ; ; ; ; ; ; ; ; ; : > o o o ",
"o o = - ; ; ; ; ; ; ; ; ; ; ; ; ; ; ; ; ; ; ; ; ; ; ; ; ; ; ; ; ; ; ; ; ; ; ; ; ; ; ; ; ; : > o o o ",
"o o = - ; ; ; ; ; ; ; ; ; ; ; ; ; ; ; ; ; ; ; ; ; ; ; ; ; ; ; ; ; ; ; ; ; ; ; ; ; ; ; ; ; : > o o o ",
"o o = - ; ; ; ; ; ; ; ; ; ; ; ; ; ; ; ; ; ; ; ; ; ; ; ; ; ; ; ; ; ; ; ; ; ; ; ; ; ; ; ; ; : > o o o ",
"o o = - ; ; ; ; ; ; ; ; ; ; ; ; ; ; ; ; ; ; ; ; ; ; ; ; ; ; ; ; ; ; ; ; ; ; ; ; ; ; ; ; ; : > o o o ",
"o o = - ; ; ; ; ; ; ; ; ; ; ; ; ; ; ; ; ; ; ; ; ; ; ; ; ; ; ; ; ; ; ; ; ; ; ; ; ; ; ; ; ; : > o o o ",
"o o , < 1 2 3 4 4 4 4 4 4 4 4 4 4 4 4 4 4 4 4 4 4 4 4 4 4 4 4 4 4 4 4 4 4 4 4 4 4 4 5 6 1 % 7 o o o ",
"o o 8 9 0 q w e e e e e e e e e e e e e e e e e e e e e e e e e e e e e e e e e e e r t 0 y u o o o ",
"o o 8 9 0 q w e e e e e e e e e e e e e e e e e e e e e e e e e e e e e e e e e e e r t 0 y u o o o ",
"o o i p a s d e e f g g g g g h e e f g g g g g g g g g g g j e e e g g g g g k l e f z a x c o o o ",
"o o = - ; v b e e n 0 0 0 0 0 m e M N 0 0 0 0 0 0 0 0 0 0 0 B r e l 0 0 0 0 0 V f e C Z ; : > o o o ",
"o o = - ; v b e e n 0 0 0 0 0 m e M N 0 0 0 0 0 0 0 0 0 0 0 B r e l 0 0 0 0 0 V f e C Z ; : > o o o ",
"o o = - ; v b e e n 0 0 0 0 0 m e M N 0 0 0 0 0 0 0 0 0 0 0 B r e l 0 0 0 0 0 V f e C Z ; : > o o o ",
"o o = - ; v b e e n 0 0 0 0 0 A p p x 0 0 0 0 0 0 0 0 0 0 0 B r e l 0 0 0 0 0 V f e C Z ; : > o o o ",
"o o = - ; v b e e n 0 0 0 0 0 0 0 0 0 0 0 0 0 0 0 0 0 0 0 0 B r e l 0 0 0 0 0 V f e C Z ; : > o o o ",
"o o = - ; v b e e n 0 0 0 0 0 0 0 0 0 0 0 0 0 0 0 0 0 0 0 0 B r e l 0 0 0 0 0 V f e C Z ; : > o o o ",
"o o = - ; v b e e n 0 0 0 0 0 0 0 0 0 0 0 0 0 0 0 0 0 0 0 0 S D b b 0 0 0 0 0 V f e C Z ; : > o o o ",
"o o = - ; v b e e n 0 0 0 0 0 0 0 0 0 0 0 0 0 0 0 0 0 0 0 0 0 0 0 0 0 0 0 0 0 V f e C Z ; : > o o o ",
"o o = - ; v b e e n 0 0 0 0 0 0 0 0 0 0 0 0 0 0 0 0 0 0 0 0 0 0 0 0 0 0 0 0 0 V f e C Z ; : > o o o ",
"o o = - ; v b e e n 0 0 0 0 0 0 0 0 0 0 0 0 0 0 0 0 0 0 0 0 0 0 0 0 0 0 0 0 0 V f e C Z ; : > o o o ",
"o o = - ; v b e e n 0 0 0 0 0 0 0 0 0 0 0 0 0 0 0 0 0 0 0 0 0 0 0 0 0 0 0 0 0 V f e C Z ; : > o o o ",
"o o = - ; v b e e n 0 0 0 0 0 0 0 0 0 0 0 0 0 0 0 0 0 0 0 0 0 0 0 0 0 0 0 0 0 V f e C Z ; : > o o o ",
"o o = - ; v b e e n 0 0 0 0 0 0 0 0 0 0 0 0 0 0 0 0 0 0 0 0 0 0 0 0 0 0 0 0 0 V f e C Z ; : > o o o ",
"o o = - ; v b e e n 0 0 0 0 0 0 0 0 0 0 0 0 0 0 0 0 0 0 0 0 0 0 0 F G G H J K L P e C Z ; : > o o o ",
"o o = - ; v b e e n 0 0 0 0 0 0 0 0 0 0 0 0 0 0 0 0 0 0 0 0 0 0 0 s I I U Y T R E e C Z ; : > o o o ",
"o o = - ; v b e e n 0 0 0 0 0 0 0 0 0 0 0 0 0 0 0 0 0 0 0 0 0 0 0 s I I U Y T R E e C Z ; : > o o o ",
"o o = - ; v b e e n 0 0 0 0 0 0 0 0 0 0 0 0 0 0 0 0 0 0 0 0 0 0 0 s I I U Y T R E e C Z ; : > o o o ",
"o o = - ; v b e e n 0 0 0 0 0 0 0 0 0 0 0 0 0 0 0 0 0 0 0 0 0 0 0 W T T T T T R E e C Z ; : > o o o ",
"o o = - ; v b e e n 0 0 0 0 0 0 0 0 0 0 0 0 0 0 0 0 0 0 0 0 0 0 0 W T T T T T R E e C Z ; : > o o o ",
"o o = - ; v b e e n 0 0 0 0 0 0 0 0 0 0 0 0 0 0 0 0 0 0 0 0 0 0 0 W T T T T T Q E e C Z ; : > o o o ",
"o o = - ; v b e e n 0 0 0 0 0 0 0 0 0 0 0 0 0 0 0 0 0 0 0 0 0 0 0 ! ~ ~ ~ ~ ~ ^ / e C Z ; : > o o o ",
"o o = - ; v b e e n 0 0 0 0 0 0 0 0 0 0 0 0 0 0 0 0 0 0 0 0 0 0 0 4 e e e e e e e e C Z ; : > o o o ",
"o o = - ; v b e e n 0 0 0 0 0 0 0 0 0 0 0 0 0 0 0 0 0 0 0 0 0 0 0 4 e e e e e e e e C Z ; : > o o o ",
"o o = - ; v b e e n 0 0 0 0 0 0 0 0 0 0 0 0 0 0 0 0 0 0 0 0 0 0 0 4 e e e e e e e e C Z ; : > o o o ",
"o o = - ; v b e e n 0 0 0 0 0 m e M N 0 0 0 0 0 0 0 0 0 0 0 0 0 0 0 0 0 0 0 0 V f e C Z ; : > o o o ",
"o o = - ; v b e e n 0 0 0 0 0 m e M N 0 0 0 0 0 0 0 0 0 0 0 0 0 0 0 0 0 0 0 0 V f e C Z ; : > o o o ",
"o o = - ; v b e e n 0 0 0 0 0 m e M N 0 0 0 0 0 0 0 0 0 0 0 0 0 0 0 0 0 0 0 0 V f e C Z ; : > o o o ",
"o o = - ; v b e e n 0 0 0 0 0 m e M N 0 0 0 0 0 0 0 0 0 0 0 0 0 0 0 0 0 0 0 0 V f e C Z ; : > o o o ",
"o o = - ; v b e e n 0 0 0 0 0 m e M N 0 0 0 0 0 0 0 0 0 0 0 0 0 0 0 0 0 0 0 0 V f e C Z ; : > o o o ",
"o o = - ; v b e e n 0 0 0 0 0 m e M N 0 0 0 0 0 0 0 0 0 0 0 0 0 0 0 0 0 0 0 0 V f e C Z ; : > o o o ",
"o o = - ; v b e e n 0 0 0 0 0 m e M N 0 0 0 0 0 0 0 0 0 0 0 ( p p p 0 0 0 0 0 V f e C Z ; : > o o o ",
"o o = - ; v b e e n 0 0 0 0 0 m e M N 0 0 0 0 0 0 0 0 0 0 0 B r e l 0 0 0 0 0 V f e C Z ; : > o o o ",
"o o = - ; v b e e n 0 0 0 0 0 m e M N 0 0 0 0 0 0 0 0 0 0 0 B r e l 0 0 0 0 0 V f e C Z ; : > o o o ",
"o o = - ; v b e e ) 0 0 0 0 0 m e _ ` 0 0 0 0 0 0 0 0 0 0 0 B r e l 0 0 0 0 0 t f e C Z ; : > o o o ",
"o o ' ] [ { } | |  ...........X.| |  .......................o.O.| | ..........+.O.| @.#.[ $.%.o o o ",
"o o &.*.=.=.=.=.=.=.=.=.=.=.=.=.=.=.=.=.=.=.=.=.=.=.=.=.=.=.=.=.=.=.=.=.=.=.=.=.=.=.=.=.=.-.;.o o o "
};
