/* XPM */
static char *b1bbd8447d4844cbddeea85c4e868745Yiws2xkBNM2Swu9V[] = {
/* columns rows colors chars-per-pixel */
"50 50 226 2 ",
"   c #020100",
".  c #0C0203",
"X  c #070901",
"o  c #0C0B01",
"O  c #130205",
"+  c #1A0207",
"@  c #150C00",
"#  c #1A0E02",
"$  c #16070A",
"%  c #1D0409",
"&  c #1F090E",
"*  c #0E1001",
"=  c #131402",
"-  c #1B1000",
";  c #161902",
":  c #1B1D03",
">  c #24040A",
",  c #2C040C",
"<  c #260A0A",
"1  c #34050E",
"2  c #38090D",
"3  c #231402",
"4  c #2A1705",
"5  c #2C1B00",
"6  c #331C06",
"7  c #270C11",
"8  c #2C0B12",
"9  c #3D0510",
"0  c #310D15",
"q  c #3B0C15",
"w  c #391119",
"e  c #1D2303",
"r  c #232503",
"t  c #242B04",
"y  c #2B2C04",
"u  c #392602",
"i  c #2C3305",
"p  c #2F3B05",
"a  c #333505",
"s  c #343B05",
"d  c #3C3D05",
"f  c #3F3508",
"g  c #440612",
"h  c #4B0714",
"j  c #460B14",
"k  c #520716",
"l  c #550817",
"z  c #530B19",
"x  c #5C0919",
"c  c #48121B",
"v  c #571713",
"b  c #521314",
"n  c #620A1B",
"m  c #6D0B1D",
"M  c #730C1F",
"N  c #681814",
"B  c #4B2C00",
"V  c #472708",
"C  c #5D250A",
"Z  c #483805",
"A  c #553500",
"S  c #5A3901",
"D  c #482F16",
"F  c #62260C",
"G  c #65290A",
"H  c #623702",
"J  c #623A00",
"K  c #693D00",
"L  c #662F12",
"P  c #4A1621",
"I  c #551623",
"U  c #5C1B29",
"Y  c #6D0E21",
"T  c #750B20",
"R  c #7C0C21",
"E  c #6B1324",
"W  c #671828",
"Q  c #651D2C",
"!  c #76182B",
"~  c #7A1F31",
"^  c #6A2728",
"/  c #762334",
"(  c #7E2538",
")  c #354106",
"_  c #3C4306",
"`  c #3C4907",
"'  c #434A07",
"]  c #4B4C07",
"[  c #484308",
"{  c #504604",
"}  c #435107",
"|  c #4B5207",
" . c #465508",
".. c #4A5508",
"X. c #475808",
"o. c #495A08",
"O. c #535509",
"+. c #565508",
"@. c #535C08",
"#. c #5A5D08",
"$. c #684801",
"%. c #774801",
"&. c #7C4B00",
"*. c #645B07",
"=. c #7F5100",
"-. c #6A5117",
";. c #7A5C13",
":. c #556209",
">. c #5A6609",
",. c #5E6909",
"<. c #696907",
"1. c #636509",
"2. c #646D0A",
"3. c #6A6C09",
"4. c #67700A",
"5. c #6B730A",
"6. c #73750A",
"7. c #747A0B",
"8. c #7A7D0B",
"9. c #6A6312",
"0. c #7A6816",
"q. c #754B23",
"w. c #861E1A",
"e. c #9A2E18",
"r. c #8E3619",
"t. c #923E1F",
"y. c #B1391C",
"u. c #830D24",
"i. c #8B0C25",
"p. c #910D27",
"a. c #950E28",
"s. c #9A0E29",
"d. c #841D20",
"f. c #86152B",
"g. c #92122B",
"h. c #9A112C",
"j. c #8E1830",
"k. c #991C35",
"l. c #A30F2C",
"z. c #AA0F2E",
"x. c #A7142D",
"c. c #AA1E2B",
"v. c #B1172C",
"b. c #A71734",
"n. c #AB1E3B",
"m. c #B31131",
"M. c #B71A3A",
"N. c #BA1A39",
"B. c #88263A",
"V. c #93243B",
"C. c #813533",
"Z. c #AB202B",
"A. c #A7223D",
"S. c #BC203F",
"D. c #89470A",
"F. c #835200",
"G. c #8D5901",
"H. c #9A5701",
"J. c #99431F",
"K. c #A15D01",
"L. c #B95C0B",
"P. c #A54619",
"I. c #8B6A04",
"U. c #9D6200",
"Y. c #8B7B07",
"T. c #9A7E07",
"R. c #866914",
"E. c #9A6411",
"W. c #A96200",
"Q. c #A96B00",
"!. c #A76308",
"~. c #B66B00",
"^. c #AA7703",
"/. c #B87400",
"(. c #834D2B",
"). c #9C5534",
"_. c #A84E37",
"`. c #C67801",
"'. c #D37E00",
"]. c #D96616",
"[. c #CF4634",
"{. c #CF6022",
"}. c #932C41",
"|. c #9B2E44",
" X c #9D3C40",
".X c #A52C45",
"XX c #B62A46",
"oX c #A13047",
"OX c #A33048",
"+X c #AB334C",
"@X c #B6344F",
"#X c #B83751",
"$X c #BC3853",
"%X c #C52847",
"&X c #C62A49",
"*X c #CC3352",
"=X c #C43A56",
"-X c #CE3D5B",
";X c #D43B5A",
":X c #D73C5C",
">X c #BD474D",
",X c #C54851",
"<X c #D6405F",
"1X c #D8405F",
"2X c #DA4060",
"3X c #7D810B",
"4X c #84850C",
"5X c #8A830A",
"6X c #87880C",
"7X c #8A8A0C",
"8X c #998408",
"9X c #A88C08",
"0X c #B98904",
"qX c #C78702",
"wX c #D28500",
"eX c #DC8402",
"rX c #C99204",
"tX c #D39202",
"yX c #E58D00",
"uX c #EB9301",
"iX c #EE9D01",
"pX c #F39602",
"aX c #F59D01",
"sX c #FA9E00",
"dX c #F7A001",
"fX c #FFA200",
/* pixels */
"7X7X7X7X7X7X7X7X7X7X7X7X7X7X6X4X8.7.4.,.>.4.8.7X7X7X7X7X7X7X7X7X7X7X7X7X7X7X7X7X7X7X7X7X7X7X7X7X7X7X",
"7X7X7X7X7X7X7X7X7X7X7X7X7X7X6X4X8.7.4.,.>.4.8.7X7X7X7X7X7X7X7X7X7X7X7X7X7X7X7X7X7X7X7X7X7X7X7X7X7X7X",
"7X7X7X7X7X7X6X4X4X3X8.8.8.8.8.5X8X8X8XY.Y.Y.5X7X7X7X7X7X7X7X7X7X7X7X7X7X7X7X7X7X7X7X7X7X7X7X7X7X7X7X",
"6X6X6X7X7X4X4X4X8.7.4.2.2.2.6.8X0XrXrXqX0X9X8X7X7X7X6X7X7X7X7X7X7X7X7X7X7X7X7X7X7X7X7X7X7X7X7X7X7X7X",
"4X4X4X6X7X4X4X8.6.2.>.:.:.:.<.T.tXdXaXaXiXrX9X7X6X4X4X4X7X7X7X7X7X7X7X7X7X7X7X7X7X7X7X7X7X7X7X7X7X7X",
"8.8.3X4X4X4X8.7.5.4.2.,.,.>.<.I.^.`.wXyXuXrX9X4X4X3X3X4X4X7X7X7X7X7X7X7X7X7X7X7X7X7X7X7X7X7X7X7X7X7X",
"5.5.7.8.3X8.7.5.4.5.5.5.5.4.<.*.$.%.U./.wX0X8X4X3X8.7.8.3X4X7X7X7X7X7X7X7X7X6X7X7X7X7X7X7X7X7X7X7X7X",
"2.2.4.6.8.7.5.2.4.7.3X3X3X8.3.] y 5 J H.`.^.T.3X8.5.4.6.8.4X4X7X7X7X7X7X7X6X4X4X7X7X7X7X7X7X7X7X7X7X",
"2.2.4.5.6.5.5.4.5.8.4X4X6.<.+.Z 6 2 G D.L.!.E.R.R.;.;.;.R.R.R.0.3.6.8.4X4X4X3X3X4X6X7X7X7X7X7X7X7X7X",
"5.5.4.4.4.4.5.7.8.3X4X8.1.] f V v m w.e.y.y.P.J.J.t.t.t.J.J.D.$.[ ] 1.7.8.8.7.7.8.4X7X7X7X7X7X7X7X7X",
"7.7.5.4.2.4.7.3X4X4X7X6.] r 3 b R s.x.c.v.c.c.Z.c.c.c.c.c.Z.d.v 3 t ] 3.7.5.4.4.7.4X7X7X7X7X7X7X7X7X",
"7.7.5.2.2.4.6.8.8.7.6.*.Z 4 1 n p.m.N.N.N.N.N.N.N.N.N.N.N.N.g.n , 4 Z +.1.2.2.4.7.4X7X7X7X7X7X7X7X7X",
"4.4.4.4.4.4.5.5.2.#.] Z V b n u.s.m.N.%X&X&X&X&X&X&X&X&X&X&XA.f.n b V f ' #.2.7.8.4X6X6X6X4X4X4X4X4X",
",.,.2.4.6.5.4.2.@.d r 4 b R a.l.z.N.%X*X;X;X;X;X;X;X;X;X;X;X&Xn.h.M b 4 t ] 3.3X4X4X4X4X4X4X4X4X4X4X",
":.:.,.4.5.2.>.@._ t o + h R s.s.s.h.n.XX$X$X$X$X$X$X$X$X$X$XXXn.h.R l > 4 Z *.6.7.8.3X3X8.8.8.6.6.6.",
":.:.:.,.2.:.] s t ; X O 1 h n n n n E ! / / / / / / / / / / ! E n x x l b V Z ] #.2.5.4.2.2.>.#.] ] ",
"o.o.@.:.>.} a : * X     O > > > > > , 8 0 0 0 0 0 0 0 0 0 0 8 , > 9 x R M b 6 t _ o.>.:.@...' d y y ",
"o.o.o.:.:.' t X   . . . .     . O $ $ $ $ $ $ $ $ $ $ $ $ $ $ $ $ q Y l.h.n , # y _ X.| | ] _ i : : ",
"o.o.:.,.2.| y X O , g 9 > . . 8 P U U U U U U U U U U U U U U U U ! V.XXn.f.n j 6 a s ' ..#.O.] d d ",
":.:.,.4.7.#.a o % g M m g + $ P ( OXOXOXOXOXOXOXOXOXOXOXOXOXOXOXOX+X@X*X&XA.g.M b 4 e d #.5.<.1.#.#.",
":.:.2.7.4X1.s o > n s.p.x > & Q +X2X:X:X-X:X2X2X<X:X-X:X<X2X1X:X-X:X:X2X;X&XN.s.n , o a #.8.7.7.6.6.",
":.:.2.7.4X1.d o > n s.p.x > & Q +X:X#X|.B.OX=X2X$XOXB.oX$X<X=X+XV.|.@X-X;X&XN.s.n , X y | 4.2.2.2.2.",
":.:.2.8.4X1.d o > n s.p.x > & Q +X-X|.Q P ( +X2XOX/ c / oX:X@XB.I Q }.=X;X&XN.s.n > X t ' >.:.:.:.:.",
":.:.2.8.6X1.d o > x a.i.l % & Q +X=X( w . I |.:XB.P   c B.-XoXU $ 0 / $X;X%XM.a.x > X e ) o.o.o.o.o.",
":.:.4.8.7X1.d o + 9 n n 9 O % U A.XX~ 0 . c V.*XB.c   w ~ &XV.I $ 8 ! XXXXb.f.n 9 + X e ) X.o.o.o.o.",
":.:.4.8.7X1.d o . > 1 1 % . % z k.n.E 0 . j f.S.! j   q ! M.j.z O > E b.n.R z 1 > . X e ) X.X.o.o.o.",
":.:.2.8.6X1.d o             + k i.l.m , . g R m.T 9   1 M z.u.h O > n s.a.x >       X e ) X.o.o.o.o.",
"o.o.>.4.7.#.a o . 3 5 5 - . O 9 n M h > . , l R N C B C N R x 1 . < N e.e.v >   o = e i ` o.o.o.o.o.",
"X.X.@.>.2.| y X # V K J u @ . % 1 9 > O   + , g F &.U.D.G j 1 %   4 G P.t.C 3 X ; t p _ } o.o.o.o.o.",
"} }  .o.@._ r X 4 J H.H.S 3     . .           . A W.uXQ.J # .     5 K K.H.H 3 o e ) X.X.X.o.o.o.o.o.",
") ) _ ` ' s e X 5 K W.K.J 3   O > , + .         A Q.sX/.J o       5 K W.K.J 3 o t _ o.o.o.o.o.o.o.o.",
"t t i p s t ; X 5 K W.K.J 3 . 1 k x 9 +         A Q.sX/.J o       5 K W.K.J 3 o t ` o.o.o.o.o.o.o.o.",
"; ; e r t e = X 5 K W.K.J 3 O h R p.x ,         A Q.sX/.J o       5 K W.K.J 3 o t ` o.o.o.o.o.o.o.o.",
"y y a a s a t r u S F.&.B - + k i.z.R h > + .   B F.`.G.B o       3 A F.&.B - o i | >.>.>.:.:.o.o.o.",
"O.O.O.+.#.O.| ] [ A A B 5 @ + k i.z.p.T x 9 %   5 B %.A 5         @ 5 B B 5 @ * a #.5.4.4.2.,.:.o.o.",
"6.6.6.6.7.6.6.6.#.Z 5 @ o   + k i.m.z.l.p.x ,   o @ 3 - o           o @ @ o   = d 1.3X8.7.6.4.>.o.o.",
"4X4X4X4X4X4X4X3X2.' r = o X O g M a.s.z.z.R h > > 7 7 < 3 3 3 5 5 5 5 5 3 @ . = d <.4X4X3X8.5.2.:.:.",
"7X7X4X4X4X3X8.7.2.#.] a r o . , g n R s.z.p.M x I W Q ^ L H K %.&.F.F.F.$.V @ = d <.7X4X4X3X8.6.4.4.",
"7X7X4X4X4X8.5.2.2.3.3.#.a =   . + , x i.m.z.s.a.k..X@X_.P.K.Q./.wXwXwXwXQ.$.3 = d <.7X6X4X4X4X3X8.8.",
"7X7X4X4X4X8.5.2.4.6.8.3.[ 6 & & & 8 z R s.l.z.m.N.*X;X[.{.`.eXuXsXfXfXfXwX=.5 = _ 3.7X7X4X4X4X3X8.8.",
"7X7X6X4X4X8.7.5.4.4.5.9.-.^ Q Q Q Q W n n R s.m.N.%X&X[.].eXyXpXfXfXfXfXwX=.5 = d <.7X4X4X3X8.7.4.4.",
"7X7X6X4X4X3X8.7.5.2.,.9.(. X+X+X+X|.~ j , x i.m.m.N.N.[.].uXaXsXfXfXfXfXwX=.5 = d <.7X4X3X8.5.2.>.>.",
"6X6X4X4X3X3X8.8.5.2.>.9.).,X2X2X:X=XB.c + h T l.l.l.l.y.].pXsXsXsXaXuXuX/.&.u : [ 3.4X3X8.5.4.>.o.o.",
"4X4X3X7.5.5.5.5.4.2.2.0.).,X:X;X*XXXk.E h l x n n n n r.L.eXyXyXyXwX/.U.F.$.Z [ #.6.3X7.4.2.,.:.o.o.",
"3X3X7.4.,.,.,.2.2.2.4.0.).,X:X*X%XM.b.g.R n g , , , , F H.`.'.'.'.~.F.A Z { +.1.3.6.7.4.2.:.:.o.o.o.",
"8.8.4.,.@.:.:.:.,.2.5.R.).>X*X%XN.m.m.m.z.m 1       X u %.~.~.~.~.G.A # = _ 2.8.8.7.5.2.:.o.o.o.o.o.",
"4.4.,.:.o.o.@.:.:.>.2.9.q.C.V.k.b.m.m.m.z.m 1   o = e Z $.I.G.F.&.S u @ = s #.4.4.2.2.>.:.o.o.o.X.X.",
":.:.:.o.o.o.o.o.o.:.:.O.D D I ! h.m.m.m.z.m 1   = t s ' +.*.$.Z u 5 - . = i | :.:.:.:.@.o.o.o.o.X.X.",
"o.o.o.o.o.o.o.o.o.o.o.` t * + k i.m.m.m.z.m 1   : s X.o.o.o.) e X       o t ` o.o.o.o.o.o.o.o.o.X.o.",
"o.o.o.o.o.o.o.o.o.o.o.` t * + k i.m.m.m.z.m 1   : s X.o.o.o.) e X       * t ` o.X.o.o.o.o.o.o.o.X.X."
};
