/* XPM */
static char *be3b3bfae6924ad4977ba7789a3edf2eefULhJ0SM45y7PiE[] = {
/* columns rows colors chars-per-pixel */
"50 50 236 2 ",
"   c #020100",
".  c #0C0302",
"X  c #0B0A01",
"o  c #140305",
"O  c #1A0307",
"+  c #130B01",
"@  c #1B0D02",
"#  c #1D0409",
"$  c #170308",
"%  c #141402",
"&  c #1B1702",
"*  c #0F1302",
"=  c #24040A",
"-  c #2B050C",
";  c #2B0A0D",
":  c #250B09",
">  c #33050E",
",  c #390B0C",
"<  c #231401",
"1  c #2C1A00",
"2  c #291805",
"3  c #341E01",
"4  c #37160A",
"5  c #270B10",
"6  c #2C0B12",
"7  c #3D0611",
"8  c #330B12",
"9  c #3B0C15",
"0  c #350710",
"q  c #361516",
"w  c #1C2103",
"e  c #242B04",
"r  c #2C2D04",
"t  c #282505",
"y  c #312201",
"u  c #322509",
"i  c #392905",
"p  c #2C3305",
"a  c #273004",
"s  c #323D05",
"d  c #3B3B05",
"f  c #3D3E09",
"g  c #373403",
"h  c #461C09",
"j  c #551B0D",
"k  c #450613",
"l  c #4B0714",
"z  c #460914",
"x  c #4B0C17",
"c  c #540A17",
"v  c #560B1A",
"b  c #5A0919",
"n  c #510716",
"m  c #481516",
"M  c #5B1315",
"N  c #571316",
"B  c #630A1B",
"V  c #6C0A1D",
"C  c #720B1E",
"Z  c #790F1F",
"A  c #661616",
"S  c #781A1B",
"D  c #4A2B00",
"F  c #442C06",
"G  c #5C2808",
"H  c #483607",
"J  c #553201",
"K  c #5A3500",
"L  c #543B05",
"P  c #532713",
"I  c #5A3514",
"U  c #4C2319",
"Y  c #623B00",
"T  c #6A3C01",
"R  c #693505",
"E  c #753B06",
"W  c #692514",
"Q  c #7B251B",
"!  c #673913",
"~  c #6B2F0E",
"^  c #571724",
"/  c #4C1521",
"(  c #690E21",
")  c #7B0D22",
"_  c #730D21",
"`  c #681828",
"'  c #7D1222",
"]  c #711C2D",
"[  c #761427",
"{  c #751E31",
"}  c #5E2328",
"|  c #7C2335",
" . c #394606",
".. c #3D4B07",
"X. c #394307",
"o. c #454506",
"O. c #434C07",
"+. c #4B4C07",
"@. c #4B430B",
"#. c #4A4606",
"$. c #52480B",
"%. c #435107",
"&. c #465608",
"*. c #495708",
"=. c #475808",
"-. c #485908",
";. c #4F5C07",
":. c #535C08",
">. c #5C5D08",
",. c #595609",
"<. c #5C4211",
"1. c #5C4B10",
"2. c #4E4811",
"3. c #6C4400",
"4. c #664802",
"5. c #7A4701",
"6. c #695F0C",
"7. c #674615",
"8. c #785319",
"9. c #556209",
"0. c #5B6409",
"q. c #5D6508",
"w. c #656508",
"e. c #626C0A",
"r. c #6B6B09",
"t. c #6A650A",
"y. c #78680C",
"u. c #67710A",
"i. c #69720A",
"p. c #74740A",
"a. c #7A7E0B",
"s. c #787A0B",
"d. c #764925",
"f. c #882B1B",
"g. c #84381B",
"h. c #923614",
"j. c #A83B16",
"k. c #820C23",
"l. c #8B0D25",
"z. c #950E28",
"x. c #970E29",
"c. c #821224",
"v. c #8B1826",
"b. c #9C122C",
"n. c #95132A",
"m. c #991A33",
"M. c #8B1C32",
"N. c #A40F2C",
"B. c #AB0F2E",
"V. c #A4132B",
"C. c #AC102E",
"Z. c #A51A2A",
"A. c #A71B2A",
"S. c #A71734",
"D. c #B31232",
"F. c #BB1C3B",
"G. c #B51A3A",
"H. c #B0142D",
"J. c #8A2723",
"K. c #8D3023",
"L. c #983A24",
"P. c #872638",
"I. c #9D233C",
"U. c #94253C",
"Y. c #9F2F2A",
"T. c #A62425",
"R. c #B32723",
"E. c #A8233C",
"W. c #B4213D",
"Q. c #AF3B30",
"!. c #844C01",
"~. c #874405",
"^. c #9B4D07",
"/. c #8C5301",
"(. c #955700",
"). c #9B5A01",
"_. c #995802",
"`. c #8A4C18",
"'. c #A25C01",
"]. c #AC5906",
"[. c #B85D08",
"{. c #A64211",
"}. c #B84516",
"|. c #B35114",
" X c #9D6300",
".X c #896613",
"XX c #92730B",
"oX c #AE6800",
"OX c #B66902",
"+X c #B47401",
"@X c #BE7700",
"#X c #AD6E10",
"$X c #9D452E",
"%X c #B14D39",
"&X c #CD7D00",
"*X c #C47502",
"=X c #D27E00",
"-X c #C06009",
";X c #C8523A",
":X c #9C2A42",
">X c #983441",
",X c #A92B45",
"<X c #B52542",
"1X c #BD2242",
"2X c #B52C47",
"3X c #A63149",
"4X c #AF344E",
"5X c #B4324C",
"6X c #BB3752",
"7X c #C22444",
"8X c #C52C4B",
"9X c #C92C4C",
"0X c #C12F47",
"qX c #C3334C",
"wX c #CD3453",
"eX c #C83B57",
"rX c #D33A5A",
"tX c #D23656",
"yX c #D24354",
"uX c #C04052",
"iX c #7D800B",
"pX c #85850C",
"aX c #8A860D",
"sX c #8A8A0C",
"dX c #988C0A",
"fX c #AE9208",
"gX c #A69009",
"hX c #B89207",
"jX c #B18906",
"kX c #CD8501",
"lX c #D58400",
"zX c #D49804",
"xX c #CF9805",
"cX c #E38D00",
"vX c #ED9800",
"bX c #F59E01",
/* pixels */
"sXsXsXsXsXsXsXsXsXsXsXsXsXsXsXsXsXsXe.-.-.e.pXsXsXsXsXsXsXsXsXsXsXsXsXsXsXsXsXsXsXsXsXsXsXsXsXsXsXsX",
"sXsXsXsXsXsXsXsXsXsXsXsXsXsXsXsXsXsXe.-.-.e.pXsXsXsXsXsXsXsXsXsXsXsXsXsXsXsXsXsXsXsXsXsXsXsXsXsXsXsX",
"sXsXsXsXsXsXsXsXsXsXsXsXsXsXsXsXsXsXe.-.-.e.pXsXsXsXsXsXsXsXsXsXsXsXsXsXsXsXsXsXsXsXsXsXsXsXsXsXsXsX",
"sXsXsXsXsXsXsXsXiX9.-.-.-.-.-.-.-.-.-.-.;.p.dXfXfXfXfXgXdXsXsXsXsXsXsXsXsXsXsXsXsXsXsXsXsXsXsXsXsXsX",
"sXsXsXsXsXsXsXsXiX9.-.-.-.-.-.-.-.-.-.-.:.XXhXxXzXzXxXhXgXdXsXsXsXsXsXsXsXsXsXsXsXsXsXsXsXsXsXsXsXsX",
"sXsXsXsXsXsXsXsXiX9.-.-.-.-.-.-.-.-.-.-.q.XXzXbXbXbXvXzXfXdXsXsXsXsXsXsXsXsXsXsXsXsXsXsXsXsXsXsXsXsX",
"0.0.p.sXsXiXq.0.e.s.a.a.a.a.a.9.-.-.-.-.q.XXkXcXlX&X+XXXXXaXsXsXsXsXsXsXsXsXsXsXsXsXsXsXsXsXsXsXsXsX",
"-.-.u.sXsXa.;.-.9.pXsXsXsXsXsXq.-.-.-.-.>.XXjX&XOX/.3.4.y.pXsXsXsXsXsXsXsXsXsXsXsXsXsXsXsXsXsXsXsXsX",
"-.-.u.sXsXa.;.-.9.pXsXsXsXsXsX0.&.&.*.*.>.XX+XOX/.J 3 i ,.s.aXaXaXaXaXpXpXsXsXsXsXsXsXsXsXsXsXsXsXsX",
"a.a.i.0.0.e.s.a.iXsXsXsXsXsXpX:. .X.2.7.8..X#X|.`.W m h I 7.8..X.X.Xy.t.r.0.:.0.i.sXsXsXsXsXsXsXsXsX",
"sXsXi.-.-.9.pXsXsXsXsXsXsXsXa.O.p u I d.$X%X;X;XQ.J.' S Q f.K.L.$Xg.! H o.O.O.-.e.sXsXsXsXsXsXsXsXsX",
"sXsXi.-.-.9.pXsXsXpXpXpXaXpXp.H t q } >XuXyXyXyX0XE.b.b.V.Z.A.A.A.v.M 4 u d  .&.e.sXsXsXsXsXsXsXsXsX",
"i.i.i.i.i.i.i.i.i.p.r.y.y..X.X! U ^ | 4XrXrXrXwX<Xm.n.n.S.G.F.F.G.m.( z 4 i #.:.w.pXsXsXsXsXsXsXsXsX",
"-.-.u.sXsXa.;.&.*.,.#.L ! `.L.L.P.U.3XeXrXtX9X1Xm.[ b [ m.1X9X9X8X<Xm.[ M h H #.>.p.pXsXsXsXsXsXsXsX",
"-.-.u.sXsXa.;.&.O.o.t 4 M v.T.E.5X6XeXeXeX8X1XS.) l 0 / P.6XrXrXtX8X<XV.k.M 4 u #.r.pXpXsXsXsXsXsXsX",
"-.-.0.i.i.e.-.&...p % # k V v.m.:X3X3X3X3XI.m.) b - # m P.5XwXtXwX9X7XD.z.V z 4 i #.:.0.e.i.e.o.o.o.",
"-.-.-.-.-.-.-.&. .e X o = 7 x v ^ ^ ` ` ^ ^ v z > O $ 9 [ E.7X7X7X1XG.D.N.l.C b m u e s ..-.%.      ",
"-.-.-.-.-.-.&.&.X.e + . $ # = = 5 5 5 5 5 5 = # $ . $ 7 _ b.D.G.G.G.G.D.C.V.x.k.v ; % e  .&.%.      ",
"-.-.:.0.0.9.;.%.f u ; - ; 6 6 6 - - ; 6 6 6 - = = = - k B k.z.N.C.D.G.G.G.G.G.m.B ; + e O.9.9.t t t ",
"-.-.u.sXsXp.>.#.H P M B ` ] ] ` ( ( ` ] { ] ( B B B B b v b V l.V.G.F.7X9X9X9XE.` 8 % d w.pXsXsXsXsX",
"-.-.u.sXpXr.o.t 4 M c.m.E.,X2XE.m.m.S.,X2X,XS.b.z.z.l.C l 0 l C b.G.7XwXtXrXwX2X] 9 & d w.pXsXsXsXsX",
"-.-.u.sXpXw.d % - B z.S.W.2X2X2X<XW.<X2X2X2X<XG.G.D.C.k.b 7 k B k.S.1XwXrXeX6X:X] m 4 H 6.s.a.a.a.a.",
"-.-.u.sXpXw.d % - B z.b.M.{ | U.,X<XI.P.| P.,X1X7XG.C.x.) B b b b [ :X6X6X3XP.` ` B A ! @.-.-.-.-.-.",
"-.-.u.sXpXw.d % - B l.z.( x m { 3X5XP.^ m ` :XqX9XF.D.C.N.z.C n 7 m P.4X4X| / 9 v ) v.g.<.-.-.-.-.-.",
"-.-.u.sXpXw.d % - B l.l.b - 6 ` :X,X| 9 6 / U.qX9XF.G.D.D.N.k.l = 9 { 3X,X` 6 = k C v.g.<.*.-.-.-.-.",
"-.-.u.sXpXw.d % - B l.l.b - ; ^ m.I.] 9 5 x M.<X1XG.D.D.D.N.k.l = 0 ` I.m.` ; $ - z N P @.*.-.-.-.-.",
"-.-.u.sXpXw.d % - B l.l.b - = v v.n.( 0 = z ' S.G.D.D.D.C.N.k.l = > B n.v.b = . . O : u X.&.-.-.-.-.",
"-.-.u.sXpXr.o.t 4 v ) Z M 4 4 N Z ' A h 4 j Z z.N.B.C.D.D.N.k.l = - n _ C l #   X X % e  .&.-.-.-.-.",
"-.-.-.-.-.*.>.+.H h c M j G G G M A W E 5.~ A B ) z.B.D.D.N.k.l = O > l k - o X % w e s ..-.-.-.-.-.",
"-.-.-.-.-.:.p.p.,.u 2 4 K ~.!.R h h R ).oX/.G , n k.N.D.D.N.k.l # . o O O o . X w p ..O.&.-.-.-.-.-.",
"-.-.-.-.-.9.pXpXq.r % 1 Y (.(.T 3 3 3.+XkX XJ : > B l.z.z.l.V 7 O . + @ < < < 2 r s ..%.&.-.-.-.-.-.",
"% % % % % e :.9.O.e % 1 Y (._.T 3 3 3.+XkX XJ @ = 7 c B B b k - o @ 1 D J K K J H g p X...-.-.-.-.-.",
"          % %.&. .e % 1 Y (._.T 3 3 3.+XkX XJ @ . O = = = = O o . < J 5.(._.(.!.K y & a  .*.-.-.-.-.",
"          * ....s r 1 i T ^.^.E h h E OX*X(.D +                 . < J !.'.oXoX'.E h 2 u X.&.-.-.-.-.",
"w.w.r.r.w.q.>.+.#.L J R h.{.j.f.A A f.}.|.h.h +                   @ i K 5._.oX].~.W j ! 6.s.s.-.-.-.",
"sXsXsXsXpXr.+.r i Y !.^.j.R.T.Z.n.n.Z.R.T.S , .                   . @ 1 D 5.'.[.{.f.J.`..XaXpX-.-.-.",
"sXsXsXsXpXw.f & y T _.].j.T.b.V.V.C.C.H.V.Z l = . .   . + @ @ & < < < 1 D 5.'.[.}.R.T.L..Xs.s.&.-.-.",
"sXsXsXsXpXw.p % 1 T ).].h.S Z l.N.C.D.D.N.l.V l > O . @ 3 D K Y 3.3.3.3.5._.oXOX}.R.A.f.! ,.w.0.i.i.",
"sXsXsXsXpX>.e X 1 T ).'.E j l V z.B.D.D.B.N.z.) v - @ 1 K !.).oX+X@X@X@X@X*X*X-X}.R.V.S h r #.r.sXsX",
"sXsXsXsXpXq.r % y Y /.!.K 1 : l ) x.N.C.C.N.b.l.B > @ 3 T (.OXkXcXvXvXvXcX&XOX].j.T.l.B 7 2 H t.sXsX",
"sXsXsXsXsXr.O.g g L Y K i @ $ > n C l.b.N.z.k.B k = o < D 3.(.+XlXcXcXcX=XoX/.E ~ A B b n m I 1.i.i.",
"sXsXsXsXsXpXp.t.$.g y 1 @ . . $ - k B l.x.k.b > = o . + < i Y (.@X=X=X&XOX!.J 3 4 , 0 n V c.g.<.-.-.",
"sXsXsXsXsXsXpXpXq.r % . . . o $ # 8 b k.z.C 7 o           + 3 T ).OXOXOX_.Y 1 .   . O l k.A.L.7.-.-.",
"sXsXpXa.a.a.a.s.>.p % o = > z x / ` [ n.z.V > .           . < D T ~.^.{.h.G :       $ l k.A.L.7.-.-.",
"sXsXi.-.-.-.-.&.O.d & # 7 B ' M.U.:XE.S.b.V > .             + < 3 G Q Y.f.M :       $ l k.V.K.7.-.-.",
"sXsXi.-.-.-.-.&.O.f 2 ; v c.S.2XqXeX0XW.b.V > .     X         X + , A v.v.M ; X X X @ x ' Z.f.7.-.-.",
"a.a.e.-.-.-.-.&.%.+.d F P Q K.$X%X%XY.J.Q N = . % t r e w w w e r H ~ g.g.! F r r r i P W f.! 1.-.-.",
"-.-.-.-.-.-.-.-.%...X.f @.<.7.7.d.d.U 9 > = o   % p s s s s s s s f L <.<.@.f s s s d H <.7.1.,.-.-.",
"-.-.-.-.-.-.-.-.-.-.-.-.-.-.-.-.-.-.w           w ..-.-.-.-.-.-.-.-.-.-.-.-.-.&.-.-.-.-.-.-.-.-.-.-.",
"-.-.-.-.-.-.-.-.-.-.-.-.-.-.-.-.-.-.w           w ..-.-.-.-.-.-.-.-.-.-.-.-.-.-.-.-.-.-.-.-.-.-.-.-."
};
