/* XPM */
static char *_4da166a6a684e30beebdeb1efac2416UBbyjUwmfGKqNHXC[] = {
/* columns rows colors chars-per-pixel */
"50 50 173 2 ",
"   c #030301",
".  c #090604",
"X  c #0D0905",
"o  c #070901",
"O  c #120C07",
"+  c #140E09",
"@  c #131602",
"#  c #161C02",
"$  c #1B1B04",
"%  c #17110E",
"&  c #1A110C",
"*  c #060B16",
"=  c #15181F",
"-  c #17161A",
";  c #2B1D0D",
":  c #24190C",
">  c #2D1B10",
",  c #281C19",
"<  c #271C15",
"1  c #311E12",
"2  c #1D2303",
"3  c #242403",
"4  c #282506",
"5  c #242A04",
"6  c #2A2904",
"7  c #212209",
"8  c #282809",
"9  c #342F0C",
"0  c #2C3204",
"q  c #2E3905",
"w  c #363605",
"e  c #393905",
"r  c #3F3C08",
"t  c #342114",
"y  c #3D2616",
"u  c #3A2718",
"i  c #3E2A19",
"p  c #131720",
"a  c #262728",
"s  c #2A2A28",
"d  c #3B2A25",
"f  c #312D2C",
"g  c #332522",
"h  c #333720",
"j  c #423F09",
"k  c #402717",
"l  c #442B1A",
"z  c #492F1D",
"x  c #4B311E",
"c  c #50341F",
"v  c #4E3420",
"b  c #4F3D26",
"n  c #523621",
"m  c #563A23",
"M  c #593D29",
"N  c #354206",
"B  c #3F4D07",
"V  c #3C4A08",
"C  c #444406",
"Z  c #4B4C06",
"A  c #425207",
"S  c #455509",
"D  c #475808",
"F  c #485908",
"G  c #4D5107",
"H  c #525D08",
"J  c #5D5C09",
"K  c #525108",
"L  c #4C5C12",
"P  c #605F09",
"I  c #536109",
"U  c #596509",
"Y  c #5B6309",
"T  c #5F6A09",
"R  c #52601F",
"E  c #636C0A",
"W  c #6A6B09",
"Q  c #646409",
"!  c #67710A",
"~  c #67710A",
"^  c #6A720A",
"/  c #6A720A",
"(  c #77770A",
")  c #72760A",
"_  c #757A0B",
"`  c #7D7E0B",
"'  c #7A7D0B",
"]  c #7A7E13",
"[  c #6A7115",
"{  c #434321",
"}  c #5F4129",
"|  c #5E4639",
" . c #63432E",
".. c #68482F",
"X. c #61492E",
"o. c #634532",
"O. c #654836",
"+. c #6B4A32",
"@. c #74523D",
"#. c #7A563D",
"$. c #5C6739",
"%. c #556227",
"&. c #73792E",
"*. c #0E2449",
"=. c #152440",
"-. c #162950",
";. c #33364D",
":. c #3C3F53",
">. c #153266",
",. c #183161",
"<. c #173873",
"1. c #1D3B74",
"2. c #183D7C",
"3. c #213E77",
"4. c #3D4047",
"5. c #3C4359",
"6. c #1B427F",
"7. c #24427D",
"8. c #384872",
"9. c #444548",
"0. c #4C4C50",
"q. c #574A51",
"w. c #575951",
"e. c #67514C",
"r. c #775540",
"t. c #666D51",
"y. c #686F53",
"u. c #6D735F",
"i. c #767656",
"p. c #424C63",
"a. c #4C5374",
"s. c #626367",
"d. c #6F7462",
"f. c #7A7C66",
"g. c #6D6D71",
"h. c #6F7074",
"j. c #747275",
"k. c #7E7F74",
"l. c #74757A",
"z. c #7B7D7F",
"x. c #855C43",
"c. c #8B6247",
"v. c #94684D",
"b. c #986B4F",
"n. c #92674B",
"m. c #9B6E52",
"M. c #986F5A",
"N. c #9F7154",
"B. c #A27357",
"V. c #A57659",
"C. c #AA795B",
"Z. c #957163",
"A. c #7D800B",
"S. c #7F8066",
"D. c #81810B",
"F. c #83840C",
"G. c #89890C",
"H. c #8A8A0C",
"J. c #8A8A0C",
"K. c #88881D",
"L. c #888814",
"P. c #868629",
"I. c #818158",
"U. c #1C4286",
"Y. c #1B458E",
"T. c #214484",
"R. c #204F9A",
"E. c #275193",
"W. c #22539C",
"Q. c #255AA6",
"!. c #2D5DA1",
"~. c #2E61A6",
"^. c #7C7D82",
/* pixels */
"H.H.H.H.H.H.H.H.H.H.H.H.H.H.H.H.H.H.E F F E F.H.H.H.H.H.H.H.H.H.H.H.H.H.H.H.H.H.H.H.H.H.H.H.H.H.H.H.",
"H.H.H.H.H.H.H.H.H.H.H.H.H.H.H.H.H.H.T D D E F.H.H.H.H.H.H.H.H.H.H.H.H.H.H.H.H.H.H.H.H.H.H.H.H.H.H.H.",
"H.H.H.H.H.H.H.H.H.H.H.H.H.H.H.H.` J 0 2 2 5 C Q D.D.Q C w w w w w w w w w e K ` H.H.H.H.H.H.H.H.H.H.",
"H.H.H.H.H.H.H.H.A.I F D D D D D B 3 o       @ Z ' ' Z @                   . 6 ( H.H.H.H.H.H.H.H.H.H.",
"H.H.H.H.H.H.H.H.A.I S V N N N N q $ .   X + : j J J r $ O O + + + + + X   . 6 ( H.H.H.H.H.H.H.H.H.H.",
"H.H.H.H.H.H.H.H.A.I B #               X t v x : . . & t l x n m m m n u X . 6 ( H.H.H.H.H.H.H.H.H.H.",
"U U ) H.H.A.T U U W Y 4 . . . . . . . + t v x > X X : u l x n m n v x t X . 6 ( H.H.H.H.H.H.H.H.H.H.",
"F F ! H.H.` F A #   . > y l v m m m m m m m n x l l x n m m m v t X       . 6 ( H.H.H.H.H.H.H.H.H.H.",
"F F ! H.H.` F A #   . > l l n m m m m m m m n x l l x n m m m v t + . . . X 6 W ' ` H.H.H.H.H.H.H.H.",
"' ' / U U E _ / 3 . . u n n m m m m m m m m m m n n m m m m m m n x z l t t ; @ @ e ` H.H.H.H.H.H.H.",
"H.H./ F D F ( W 4 . O i n m m m m m m m m m m m m m m m m m m m m m m n l k 1 X . 4 W ' ` H.H.H.H.H.",
"H.H./ F S 0 6 6 ; > 1 x m m m m m m m m m m m m m m m m m m m m m m m m n x l 1 > ; 6 6 C F.H.H.H.H.",
"/ / / / E $   . > y l c m m m m m m m m m m m m m m m m m m m m m m m m m m c l y > .   3 D.H.H.H.H.",
"F F ! H.D.3   . > y l c m m m m m m m m m m m m m m m m m m m m m m m m m m c l y > .   3 D.H.H.H.H.",
"F F ! H.D.3   . > y l c m m m m m m m m m m m m m m m m m m m m m m m m m m c l y > .   3 D.H.H.H.H.",
"F F U / E $   . > y l c m m m m m m m m m m m m m m m m m m m m m m m m m m c l y > .   $ E E C C C ",
"F F F F A @   . > y l c m m m m m m m m m m m m m m m m m m m m m m m m m m c l y > .   @ A A       ",
"F F F F A @   . > y l x v n m m m m m m m m m m m m m m m m m m m m m m n v x l y > .   @ A A       ",
"F F H U H #   . > y k l l l n m m m m m m m m m m m m m m m m m m m m n l l l k y > .   # H I 3 3 3 ",
"F F ! G.D.e 3 7 ; 1 t y y l x n n n n n m m m m m m m m m m n n n n n x l k k k y > .   3 D.H.H.H.H.",
"F F ! H.G.) W P 4 O + 1 y l l l l l l l x m m m m m m m m x l l l l l l l k k k y > .   3 D.H.H.H.H.",
"F F ! H.H.H.H.` 6 . . > y k k k k k k l x n n n n n n n n x l k k k k k k y y t t ; $ $ 0 ) ' ' ' ' ",
"F F ! H.H.H.J.` 6 . . > y k k k k k k l l l l l l l l l l l l k k k k k k y 1 & + 4 K G N S F F F F ",
"F F ! H.H.H.H.` 6 . . t z z l k k k k k k k k k k k k k k k k k k k k l z z t . . 6 ' _ D F F F D F ",
"F F ! H.H.H.H.` 6 . + M #.@.m l k k k k k k k k k k k k k k k k k k l m @.#.M + . 6 ' _ F F F F D D ",
"F F ! H.H.H.H.` 4 . % r.V.m. .l k k k k k k k k k k k k k k k k k k l  .m.V.r.%   # A F F F F F F F ",
"F F ! H.H.H.H.D.Z 5 8 m o.O.+.+.+.+.+.o.m l k k k k k k l m o.+.+.+.+.+.O.o.b 8 2 0 S F F F F F F F ",
"F F ! H.H.H.H.H.( F V 7 + < @.m.B.B.B.v.+.z k k k k k k z +.v.B.B.B.m.@.< + 7 V A A D F F F F F F F ",
"F F D D F U G.H.A.I B #   % o.c.v.N.C.B.x.+. . . . . . .+.x.B.C.N.v.c.o.%   # B F F F D F F F F F F ",
"F D D D F U G.H.A.I B #   O l  .+.c.V.C.B.m.m.m.m.m.m.m.m.B.C.V.c.+. .l O   # B F F D D F F F F F F ",
"F F D D F U G.H.A.I B #   X u n } #.n.b.b.b.b.b.b.b.b.b.b.b.b.n.#.} n u X   # B F F F F F F F F F F ",
"@ @ @ @ @ 5 H U I F B #   X u n M  ...+.+.+.+.+.+.+.+.+.+.+.+... .M n u X   # B F F F F F F F F F F ",
"          @ A F F F B #   X u n m m m m m m m m m m m m m m m m m m n u X   # B F F F F F F F F F F ",
"          @ A F F F B #   X u n m m m m m m m m m m m m m m m m m m n u X   # B F F F F F F F F F F ",
"Q W W W W W ' ' ' ' W 4 . X u n m m m m m m m m m m m m m m m m m m n u X . 4 W ' ' ' ' ' ' _ F F F ",
"H.H.H.H.H.H.H.D.C 6 9 X.#.@.M z z x m m m m m m m m m m m m m m x z z M @.#.X.9 6 C D.H.H.H.G.F F F ",
"H.H.H.H.H.H.H.` 6 . % r.V.m. .l l x m m m m m m m m m m m m m m x l l  .m.V.r.% . 6 ` H.H.H.G.F F F ",
"H.H.H.H.H.F./ T 2 . % r.V.M.q.;.;.5.p.p.p.p.p.5.:.:.5.p.p.p.p.p.5.;.;.q.M.V.r.% . 6 ` H.H.H.H./ / / ",
"H.H.H.H.H.` F A #   % r.V.Z.a.7.T.E.!.~.~.~.!.E.T.T.E.!.~.~.~.!.E.T.7.a.Z.V.r.% . 6 ` H.H.H.H.H.H.H.",
"H.H.H.H.H.` F S h s f | @.e.8.U.Y.R.Q.Q.Q.Q.W.6.>.>.6.W.Q.Q.Q.Q.R.Y.U.8.e.@.| f s { D.H.H.H.H.H.H.H.",
"H.H.H.H.H.F./ [ y.g.s.f % = ,.U.Y.Y.Y.Y.Y.Y.2.*.* * *.2.Y.Y.Y.Y.Y.Y.U.,.= % f s.g.i.L.H.H.H.H./ / / ",
"H.H.H.H.H.K.K.P.f.z.g.a . * -.1.3.3.3.1.1.<.>.=.= = =.>.<.1.1.3.3.3.1.-.* . a g.z.S.P.K.K.H.G.F F F ",
"H.H.H.H.L.I.k.k.z.^.g.a . . , d d d d g - * p 4.s.s.4.p * - g d d d d , . . a g.^.z.k.k.I.L.G.F F F ",
"H.H.F.' ] f.z.^.^.^.g.a . . ; y k k k t & . - 9.h.h.9.- . & t k k k y ; . . a g.^.^.^.z.f.] _ F F F ",
"H.H./ F L d.z.^.^.^.^.l.h.h.j.j.j.j.j.j.j.g.j.l.^.^.l.j.g.j.j.j.j.j.j.j.h.h.l.^.^.^.^.z.d.L F F F F ",
"H.H./ F L d.z.^.^.^.^.^.^.^.^.^.^.^.^.^.^.^.^.^.^.^.^.^.^.^.^.^.^.^.^.^.^.^.^.^.^.^.^.z.d.L F F F F ",
"' ' E F F R %.$.d.z.^.^.^.^.^.^.^.^.^.^.^.^.^.^.^.^.^.^.^.^.^.^.^.^.^.^.^.^.^.^.z.f.&.&.R F F F F F ",
"F F F F F F F L u.z.^.^.^.^.^.^.^.^.^.^.^.^.^.^.^.^.^.^.^.^.^.^.^.^.^.^.^.^.^.^.z.u.L F F F F F F F ",
"F F F F F F F L $.t.y.y.y.y.y.y.y.y.w.0.0.0.0.0.w.t.y.y.y.y.y.y.y.y.y.y.y.y.y.y.t.$.L F F F F F F F ",
"F F F F F F F F F F F F F F F F F F 2           2 B F F F F F F F F F F F F F F F F F F F F F F F F "
};
