/* XPM */
static char *_e376a1ccbae499ce466132dfb3f3efcEGJU47GJ2T9kvoAu[] = {
/* columns rows colors chars-per-pixel */
"50 50 144 2 ",
"   c #485908",
".  c #C1AC8F",
"X  c #7A7E0B",
"o  c #0A0803",
"O  c black",
"+  c #69720A",
"@  c #543822",
"#  c #8A8A0C",
"$  c #563A23",
"%  c #7C7D82",
"&  c #482F1C",
"*  c #87880C",
"=  c #452B1A",
"-  c #060402",
";  c #120B07",
":  c #513521",
">  c #3F2716",
",  c #4F341F",
"<  c #4C311E",
"1  c #412818",
"2  c #576409",
"3  c #3A3C05",
"4  c #AC7B5D",
"5  c #3B2415",
"6  c #212304",
"7  c #686F53",
"8  c #22150E",
"9  c #533721",
"0  c #372214",
"q  c #83850B",
"w  c #19110A",
"e  c #261A0E",
"r  c #3F2A1A",
"t  c #78797D",
"y  c #82820B",
"u  c #0F1003",
"i  c #7A7B0A",
"p  c #835C43",
"a  c #75790A",
"s  c #404F07",
"d  c #515F08",
"f  c #7A7A7E",
"g  c #636C09",
"h  c #93694E",
"j  c #435207",
"k  c #61432F",
"l  c #716D74",
"z  c #6F4D37",
"x  c #676709",
"c  c #2A65B4",
"v  c #141602",
"b  c #4A5A09",
"n  c #9D7055",
"m  c #212803",
"M  c #464448",
"N  c #4E4D4F",
"B  c #AF8365",
"V  c #76553E",
"C  c #B99B7E",
"Z  c #2E1D12",
"A  c #313605",
"S  c #0B0C06",
"D  c #A08C73",
"F  c #5D3F29",
"G  c #A37457",
"H  c #5F4B3E",
"J  c #1C1D04",
"K  c #3D4306",
"L  c #70740A",
"P  c #575554",
"I  c #4C382C",
"U  c #A99378",
"Y  c #445407",
"T  c #76796F",
"R  c #655C5A",
"E  c #A07C69",
"W  c #2C2909",
"Q  c #5F6809",
"!  c #40342C",
"~  c #7D800D",
"^  c #694831",
"/  c #3D4A06",
"(  c #787E97",
")  c #322014",
"_  c #475708",
"`  c #80800B",
"'  c #265BA5",
"]  c #5C5C09",
"[  c #161619",
"{  c #9A9DAA",
"}  c #66574B",
"|  c #B7A084",
" . c #656C4A",
".. c #7D8299",
"X. c #BFA98C",
"o. c #4471B0",
"O. c #7C7E7A",
"+. c #505E19",
"@. c #B59073",
"#. c #AC8063",
"$. c #837D8B",
"%. c #35363F",
"&. c #1E4B94",
"*. c #325B97",
"=. c #2D2A2B",
"-. c #888814",
";. c #787C33",
":. c #7B7C80",
">. c #7A624E",
",. c #9094A5",
"<. c #A3A7B4",
"1. c #6B6B09",
"2. c #BBA386",
"3. c #3B404F",
"4. c #967962",
"5. c #9A866F",
"6. c #82824E",
"7. c #5E682E",
"8. c #797B4D",
"9. c #8C6247",
"0. c #83899E",
"q. c #3A4F74",
"w. c #B48D70",
"e. c #193A6C",
"r. c #3A5B8D",
"t. c #172642",
"y. c #0C1A32",
"u. c #535407",
"i. c #646560",
"p. c #6E7360",
"a. c #A4785B",
"s. c #2862B1",
"d. c #473D24",
"f. c #86725C",
"g. c #4A4B07",
"h. c #858539",
"j. c #7C7074",
"k. c #7F7681",
"l. c #4E5408",
"z. c #455508",
"x. c #156408",
"c. c #22598F",
"v. c #48AC0B",
"b. c #C17E03",
/* pixels */
"# # # # # # # # # # # # # # # # # # # # # # # # # # # q g     g # # # # # # # # # # # # # # # # # # ",
"# # # # # # # # # # # # # # # # # # # # # # # # # # # q g     g # # # # # # # # # # # # # # # # # # ",
"# # # # # # # # # # # # # # # # # # # # # # # # # # # q g     g # # # # # # # # # # # # # # # # # # ",
"# # # # # # # # # # # # # # # # # # # # # # # # # # # q g                       d ~ # # # # # # # # ",
"# # # # # # # # # # # # # # # # # # # # * y ` ` ` y * q g Y j j j j j j j j z._ d ~ # # # # # # # # ",
"# # # # # # # # # # # # # # # # # # # # x 6 O O O 6 x a K S O O O O O O O o m s d ~ # # # # # # # # ",
"# # # # # # # # # # # # # # # * X i i i ] J O - o 6 ] 1.3 u - o o o o - O o A + a Q 2 Q y # * L 2 2 ",
"# # # # # # # # # # # # # # # 1.J O O O O O o e < r w - w 0 = : $ $ $ & w S 3 i y 2   d ~ # * +     ",
"# # # # # # # # # # # # * ` i ] 6 o o o o - ; Z < = w o 8 5 & : $ 9 , r w S 3 i y 2   d ~ # * +     ",
"# # # # # # # # # + Q 2 Q K 6 J r & & & = 5 0 = : , > 0 r , @ @ , 0 w o - o 3 i * ~ X i Q 2 2 + X X ",
"# # # # # # # # # g   s j A w w & $ $ $ : & = < @ : & = < @ $ $ , 0 w o o u A 1.a q # q 2   b + # # ",
"# # # # # # # # # g s J v ) & , @ $ $ $ @ @ @ @ $ $ @ 9 @ $ $ $ @ : < & > ) e v 6 x * q 2   b + # # ",
"# # # # # # # * ` g l.v ; 0 : $ $ $ $ $ $ $ $ $ $ $ $ $ $ $ $ $ $ $ $ 9 & > e ; u g.d Q + + + + + + ",
"# # # # # # # y u.W W > r < @ $ $ $ $ $ $ $ $ $ $ $ $ $ $ $ $ $ $ $ $ @ : < r Z e J J A a # * +     ",
"# # # # # # # ` 3 o o & $ $ $ $ $ $ @ @ @ @ @ $ $ $ $ $ $ $ $ @ @ @ $ $ $ @ < 1 0 ; - m a # * +     ",
"K K K g + + + Q A o o & $ $ $ $ $ @ , < & & < , @ $ $ $ $ $ 9 < & , @ $ $ @ < 1 0 ; - m Q + + 2     ",
"O - O j   z.s / 6 o ; & $ @ 9 $ F F $ , & = 1 & 9 $ $ $ $ $ : = 1 & : 9 9 : & 1 0 ; - m Y           ",
"O O O j _ / m 6 e e Z , @ , & $ V 9.p p z : 1 & 9 $ $ $ $ $ : = 1 = & & & & = 1 0 ; - m Y           ",
"6 6 6 d 2 / o - 8 5 = : @ , & F h 4 4 4 h F & < 9 @ $ $ $ $ : = > > > > 1 1 1 > 0 ; - m d 2 2 d     ",
"# # # # * x S - 8 5 1 & , k z p n 4 4 4 n p z k : < 9 $ $ $ : = > > > 1 & & = 1 0 ; o 3 y # * +     ",
"# # # # * x S - 8 5 > > < V G 4 4 4 4 4 4 4 G V : = : $ $ $ : = > > > = , @ < 1 0 ; o 3 y # * +     ",
"X X X X i ] S - 8 5 5 e Z : z p #.@.@.@.E p z z z ^ F $ : , @ k ^ F < < : @ < 1 0 ; o 3 y # * +     ",
"        _ K o - 8 5 0 o O ; w ! D . . . 5.I Z k h h ^ @ < = $ h G p k $ $ @ < 1 0 ; o 3 y # * +     ",
"        _ / 3 3 W e w - O ; w ! D . . . 5.I ) H E 4.^ , F ^ p n G p k @ , < & 1 0 ; o 3 y # * +     ",
"            a X 3 o O O - ; w ! D . . . 5.I ) } U D H < z n 4 4 G p k 9 & 1 > > 0 ; o 3 y # * +     ",
"              z.A m J - o =.H >.U . . . U >.} 4.| U f.>.h a.4 4 G p $ < = > ) e e W 3 ] q # * +     ",
"              _ Y j K u w } U | X.. . . X.| | 2.X.X.2.C @.#.4 4 G V , 1 1 5 e o u u.i y # # * +     ",
"                    / u w } U | X.. . . . . . . . X.| C w.#.G h p ^ & 5 ) e e J m x * # # # * +     ",
"                    / u w H a.w.2.. . . . . . . . 2.w.B #.4 h ^ : & 1 0 w u 6 K j a # q 2           ",
"                    s m 6 d.z >.D C C C C C C C C @.B a.n 9.V : > 0 Z e J 6 A j d ~ # q 2           ",
"                    _ s K W 8 r h B B B B B B B B #.4 G p F < = 5 e ; u A / j _ d ~ # q 2           ",
"                        s m o 8 z h n E E E E E E 4.n 9.z < > > 5 8 - u 3 z.    b 2 2 d m v v v v v ",
"                        s m o ; = k R k.$.$.$.$.$.j.V k $ = > > 5 8 - u 3 z.          s v O O O O O ",
"                        s m o o Z I R ..0...( ( ( l H @ , & = 1 5 8 - u 3 z.          s v O O O O O ",
"      i X X X X X X X X + A S o Z I l ,.,.0.( ( ( l H $ @ 9 , = 5 8 - v u.a X X X X X i 1.x x x x x ",
"      * # # # # # # * i 1.3 e 8 0 I l { { 0.....( l H $ $ $ $ $ I r e W ] L X * # # # # # # # # # # ",
"      * # # # # # # a A W F p V : I l { <.{ { ,...l H $ $ $ z 4.D D 5.f.d.W g.` # # # # # # # # # # ",
"+ + + * # # # # # # L v ; k n h $ I l { <.<.<.,...l H $ $ $ V U . . . D ! u 3 i * L + L q # # # # # ",
"# # # # # # # # # # L v ; k n h $ ! q.o.o.o.o.o.o.r.M $ $ $ V U . . . D ! u 3 i y 2   d ~ # # # # # ",
"# # # # # # # # # # L v ; k n h $ ! q.' c c c c c r.M $ $ $ V U . . . D ! u 3 i y 2   d ~ # # # # # ",
"+ + + * # # # # # i + i.R %.Z 8 ; [ e.' c c s.' &.&.*.*.*.*.*.r.q.3.=.=.N i. .+ + + + L q # # # # # ",
"      * # # # # # g +.T l %.S O O S e.' c c s.' &.&.' c c c ' &.e.t.S [ P T  .+.d ~ # # # # # # # # ",
"      * # # # -.h.8.p.f t i.P M [ S =.3.M 3.%.t.y.y.y.t.%.3.M %.=.[ - [ P t T p.7 ~ # # # # # # # # ",
"      i X X q -.6.O.:.% :.:.f R [ o ) : : = 5 8 o O - o e < : = 5 8 - [ P t % :.T ;.X X X X X q # # ",
"            a -.6.O.% % % % % l N M P R R } P N M M M M N R R } P N M N l :.% % T 7.b       b + # # ",
"            a -.6.O.% % % % % % t t f :.f f f t t t t t t f :.f f t t t :.% % % T 7.b       b + # # ",
"            + X ;.;.8.O.% % % % % % % % % % % % % % % % % % % % % % % % % :.T 8.;.2         b g X X ",
"                b b +.T % % % % % % % % % % % % % % % % % % % % % % % % % t  .+.b                   ",
"                    +. .7 7 7 7 7 7 7 7 7 7 7 7  .P N N N N N P 7 7 7 7 7  .7.b                     ",
"                                                s 6 O O O O O 6                                     "
};
