/* XPM */
static char *_842b80363ff4517f03bc4d1abbd5a9dlJ3vkH6BpSHYCb7x[] = {
/* columns rows colors chars-per-pixel */
"50 50 204 2 ",
"   c #020101",
".  c #090604",
"X  c #060801",
"o  c #0B0A03",
"O  c #0A090A",
"+  c #120B06",
"@  c #140E0A",
"#  c #0D1001",
"$  c #131404",
"%  c #1B1C04",
"&  c #1C120B",
"*  c #18160A",
"=  c #050C16",
"-  c #151618",
";  c #24160E",
":  c #241B0C",
">  c #291A0E",
",  c #2D1D11",
"<  c #251A14",
"1  c #311E13",
"2  c #1D2404",
"3  c #222404",
"4  c #232904",
"5  c #2D2C06",
"6  c #2A270B",
"7  c #2E3605",
"8  c #323B06",
"9  c #3B3B05",
"0  c #353506",
"q  c #2D2514",
"w  c #352214",
"e  c #3A2415",
"r  c #3A2819",
"t  c #0B1B34",
"y  c #171B29",
"u  c #13243C",
"i  c #382D27",
"p  c #3E372E",
"a  c #292B3A",
"s  c #323132",
"d  c #402717",
"f  c #412817",
"g  c #432B1A",
"h  c #492E1C",
"j  c #4C321E",
"k  c #423E0C",
"l  c #4D3522",
"z  c #4C382D",
"x  c #453429",
"c  c #513621",
"v  c #563A23",
"b  c #593B27",
"n  c #5D3E2A",
"m  c #3D4B07",
"M  c #394507",
"N  c #404E07",
"B  c #474707",
"V  c #435207",
"C  c #455508",
"Z  c #475808",
"A  c #485908",
"S  c #4C5308",
"D  c #525E08",
"F  c #5B5B09",
"G  c #535407",
"H  c #4E5D14",
"J  c #556209",
"K  c #596509",
"L  c #5E6909",
"P  c #54621C",
"I  c #656509",
"U  c #626C0A",
"Y  c #696909",
"T  c #67710A",
"R  c #69720A",
"E  c #6A720A",
"W  c #72740A",
"Q  c #757A0B",
"!  c #7D7E0B",
"~  c #7A7D0B",
"^  c #697117",
"/  c #5C4129",
"(  c #5C4538",
")  c #454026",
"_  c #63422D",
"`  c #614433",
"'  c #6B4B34",
"]  c #664936",
"[  c #714E37",
"{  c #714E3A",
"}  c #72553D",
"|  c #7C563D",
" . c #5A6532",
".. c #606A2C",
"X. c #797D2B",
"o. c #787C3B",
"O. c #383946",
"+. c #2D3950",
"@. c #193A6C",
"#. c #0E254D",
"$. c #3F424E",
"%. c #34496E",
"&. c #444446",
"*. c #47454B",
"=. c #5E4C41",
"-. c #534C4A",
";. c #5B524F",
":. c #4C4C50",
">. c #444550",
",. c #504F50",
"<. c #575858",
"1. c #4F5053",
"2. c #6B5747",
"3. c #675849",
"4. c #7B5D46",
"5. c #675A55",
"6. c #656C49",
"7. c #7B7D49",
"8. c #686F53",
"9. c #646758",
"0. c #6E7358",
"q. c #776B54",
"w. c #525969",
"e. c #665D62",
"r. c #766D6D",
"t. c #75796A",
"y. c #6F6D7A",
"u. c #6E6F73",
"i. c #7A7B73",
"p. c #77787C",
"a. c #7A7A7D",
"s. c #757474",
"d. c #6A6C69",
"f. c #835C42",
"g. c #825E49",
"h. c #896248",
"j. c #95694E",
"k. c #92674D",
"l. c #8E6A51",
"z. c #986D52",
"x. c #86735C",
"c. c #9E7155",
"v. c #9A765E",
"b. c #A27357",
"n. c #A47558",
"m. c #AC7B5D",
"M. c #A1795D",
"N. c #9F7C6B",
"B. c #9A7B63",
"V. c #8C7964",
"C. c #A47F64",
"Z. c #7D800B",
"A. c #7D8023",
"S. c #81810B",
"D. c #83850C",
"F. c #86860C",
"G. c #84850C",
"H. c #8A8A0C",
"J. c #88880C",
"K. c #8A8A0C",
"L. c #888814",
"P. c #858539",
"I. c #82824F",
"U. c #9A866F",
"Y. c #9D8A72",
"T. c #988771",
"R. c #AF8264",
"E. c #A7866B",
"W. c #B2896C",
"Q. c #A18E75",
"!. c #AA8F74",
"~. c #B38F72",
"^. c #A89175",
"/. c #AB967C",
"(. c #A39078",
"). c #B59173",
"_. c #B99B7E",
"`. c #B49B7F",
"'. c #1E4A94",
"]. c #37578A",
"[. c #345D97",
"{. c #285395",
"}. c #265BA5",
"|. c #2A65B4",
" X c #3D6CAE",
".X c #435E8A",
"XX c #7C7D82",
"oX c #7F7681",
"OX c #787E97",
"+X c #4674B3",
"@X c #466DA5",
"#X c #837D8B",
"$X c #7D829A",
"%X c #7D8092",
"&X c #81879D",
"*X c #B69F83",
"=X c #BCA285",
"-X c #BEA98C",
";X c #B7A286",
":X c #979AA8",
">X c #898FA3",
",X c #9DA1B0",
"<X c #A3A7B4",
"1X c #C1AC8F",
/* pixels */
"H.H.H.H.H.H.H.H.H.H.H.H.H.H.H.H.H.H.U A A U D.H.H.H.H.H.H.H.H.H.H.H.H.H.H.H.H.H.H.H.H.H.H.H.H.H.H.H.",
"H.H.H.H.H.H.H.H.H.H.H.H.H.H.H.H.H.H.U A A U D.H.H.H.H.H.H.H.H.H.H.H.H.H.H.H.H.H.H.H.H.H.H.H.H.H.H.H.",
"H.H.H.H.H.H.H.H.H.H.H.H.H.H.H.H.H.H.U A A U D.H.H.H.H.H.H.H.H.H.H.H.H.H.H.H.H.H.H.H.H.H.H.H.H.H.H.H.",
"H.H.H.H.H.H.H.H.Z.J A A A A A A A A A A A U D.H.H.H.H.H.H.H.H.H.H.H.H.H.H.H.H.H.H.H.H.H.H.H.H.H.H.H.",
"H.H.H.H.H.H.H.H.Z.J Z C V V V V V V V V C U D.F.S.S.S.S.S.H.H.H.H.H.H.H.H.H.H.H.H.H.H.H.H.H.H.H.H.H.",
"H.H.H.H.H.H.H.H.Z.J V 2 X               o M Q I 3       3 Y H.H.H.H.H.H.H.H.H.H.H.H.H.H.H.H.H.H.H.H.",
"K K W H.H.Z.L K U Q E 0 o   . . . . . . + 9 Y F 3 .     % F ~ ~ ~ ! F.H.H.H.H.H.H.H.H.H.H.H.H.H.H.H.",
"A A T H.H.! A A J S.! 9 o & j v v v c g w & X @ g j > .           % Y H.H.H.H.H.H.H.H.H.H.H.H.H.H.H.",
"A A T H.H.! A A J S.! 9 o & r l c v c h e ; o & g j , + . . . . . 3 I ~ S.H.H.H.H.H.H.H.H.H.H.H.H.H.",
"~ ~ E K K U Q ~ Z.H.! 9 o   o & w l v v j g w r j c g w e g j j j r : 3 B U K K E H.H.H.H.H.H.H.H.H.",
"H.H.E A A J F.H.G.Q Y 0 + . o @ w l v v c j g h c c j g h c v v v h & $ 0 S m A U H.H.H.H.H.H.H.H.H.",
"H.H.E A A J F.F.Y 3 % > w r h j c v v v v v c v v v v c v v v v v c j h w $ % N U H.H.H.H.H.H.H.H.H.",
"E E E E E E U J B $ o > r h c v v v v v v v v v v v v v v v v v v v v c w @ * S Y ! H.H.H.H.H.H.H.H.",
"A A T H.H.Q 8 % % > 1 g j c v v v v v v v v v v v v v v v v v v v v v v j r r 5 5 G S.H.H.H.H.H.H.H.",
"A A T H.H.Q 4 X + w g j v v v v v v v v v v v v v v v v v v v v v v v v v v h o o 9 S.H.H.H.H.H.H.H.",
"A A K E E L 4 X + w g j v v v v j j j c v v v v v v j j h h j j v v v v v v h o X 7 U E E E U B B B ",
"A A A A A V 2 X + w g j c c c c h g g c v v v v v c j g g h c v / / v c v v j @ o 3 m N C A V       ",
"A A A A A V 2 X + w g g h h h h g f g c v v v v v c j g c [ f.f.h.| v h j v j , > : 2 4 m Z V       ",
"A A D K K D 4 X + w d f g g d d d d g c v v v v v c j h _ k.m.m.m.j.n h j v c g r ;   o N J J 3 3 3 ",
"A A T H.H.S.9 o + w g g h h g d d d g c v v v c j c _ [ f.c.m.m.m.b.f.{ _ c h g r ;   o I F.H.H.H.H.",
"A A T H.H.S.9 o + w g j v j g d d d g c v v v c g c | b.m.m.m.m.m.m.m.n.| j d d r ;   o I F.H.H.H.H.",
"A A T H.H.S.9 o + w g j v c j j n ' _ v j c v n ` ' { { g.C.).).).E.g.' l , > e r ;   o F ~ ~ ~ ~ ~ ",
"A A T H.H.S.9 o + w g j v v v _ f.n.k.b g j v ' j.z.` 1 z U.1X1X1XY.x & +   . w r ;   X M C A A A A ",
"A A T H.H.S.9 o + w g g j j v _ f.n.c.f.' n c ] v.B.] 1 z U.1X1X1XY.x & +   X & > 5 9 9 m Z A A A A ",
"A A T H.H.S.9 o + w d d g g c _ f.n.m.m.c.[ j ] Q./.2.w z U.1X1X1XY.x & +       o 9 ! Q A A A A A A ",
"A A T H.H.F.F 9 5 > > w r g j b f.n.m.m.n.l.4.x./.*XV.2.q./.1X1X1X/.q.( i O X % 3 7 C A A A A A A A ",
"A A T H.H.H.S.~ G $ . ; e f g c | b.m.m.R.~.`.;X-X-X;X*X;X-X1X1X1X-X;X(.3.@ o M V V Z A A A A A A A ",
"A A T H.H.H.H.F.I 4 % : > 1 r h ' f.k.b.R.~._.=X-X1X1X1X1X1X1X1X1X-X*X!.2.@ # m A A A A A A A A A A ",
"A A A A A J F.H.Q V M 3 + & w g h c ' j.m.R.R.~.=X1X1X1X1X1X1X1X1X=X~.M.] @ # m A A A A A A A A A A ",
"A A A A A J F.H.Z.J V 7 2 % > , w r c } h.z.m.R.)._._._._._._._._.!.h.' l 3 4 N A A A A A A A A A A ",
"A A A A A J F.H.Z.J C V m 7 $ + > e g j n f.n.m.R.R.R.R.R.R.R.R.R.l.i & 6 M m C A A A A A A A A A A ",
"$ $ $ $ $ 4 D K J A A A C 8 o . ; w d d j [ k.z.B.N.N.N.N.N.N.v.j.{ ; X 3 N A A A A A A A A A A A A ",
"          $ V A A A A A C 8 o . ; w f g h v _ 2.s.#X#X#X#X#XoX5.( g + X 3 N A A A A A A A A A A A A ",
"          $ V A A A A A C 8 o . ; w g g h l v =.y.OXOXOX$X&X%Xe.x 1 o X 3 N A A A A A A A A A A A A ",
"Y Y Y Y Y Y ~ ~ ~ ~ ~ ~ Q G $ . ; w g j c v v =.y.OXOXOX&X:X:Xr.z 1 o o 0 Y ~ ~ ~ ~ ~ ~ ~ ~ Q A A A ",
"H.H.H.H.H.H.H.H.H.H.H.! Q F q < r l v v v v v =.y.OX$X$X>X:X:Xr.z w ; : k Y ~ F.H.H.H.H.H.H.F.A A A ",
"H.H.H.H.H.H.H.H.H.H.! S 5 ) x.T.Y.Q.V.' v v v =.y.$X>X:X,X<X:Xr.z c } 4./ 6 0 ~ H.H.H.H.H.H.F.A A A ",
"H.H.H.H.H.D.E E W F.! 9 $ p Q.1X1X1X^.} v v v =.y.$X:X<X<X<X:Xr.z b j.c.` + % W H.H.H.H.H.H.H.E E E ",
"H.H.H.H.H.! A A J S.! 9 $ p Q.1X1X1X^.} v v v -..X X+X+X+X+X@Xw.x b j.c.` + % W H.H.H.H.H.H.H.H.H.H.",
"H.H.H.H.H.! A A J S.! 9 $ p Q.1X1X1X^.} v v v *.].|.|.|.|.|.}.%.p b j.c.` @ % W H.H.H.H.H.H.H.H.H.H.",
"H.H.H.H.H.D.E E E E ^ 6.9.,.i s +.].].[.[.[.[.{.'.'.}.|.|.|.}.@.- + & < p <.9.^ Q H.H.H.H.H.H.E E E ",
"H.H.H.H.H.H.H.H.Z.J H 6.s.<.- = #.@.'.}.|.|.|.}.'.'.}.|.|.|.}.@.=     O s u.t.P U H.H.H.H.H.F.A A A ",
"H.H.H.H.H.H.H.H.A.0.0.s.p.<.- O y a O.>.>.+.u t t t a O.O.>.&.a O - &.<.d.p.p.0.0.P.L.H.H.H.F.A A A ",
"H.H.D.~ ~ ~ ~ ~ X.i.a.XXp.<.- . ; r h c l < O     O ; r h c l q O - e.XXXXXXXXXXi.I.L.F.~ ~ Q A A A ",
"H.H.E A A A A A ..i.XXXXXXd.:.&.-.;.5.5.5.-.&.&.&.&.-.;.5.5.5.;.*.1.u.XXXXXXXXXXi.I.L.Q A A A A A A ",
"H.H.E A A A A A ..i.XXXXXXXXp.p.p.p.p.p.p.p.p.p.p.p.p.p.p.p.p.p.p.p.XXXXXXXXXXXXi.I.L.Q A A A A A A ",
"~ ~ U A A A A A P o.7.t.a.XXXXXXXXXXXXXXXXXXXXXXXXXXXXXXXXXXXXXXXXXXXXXXXXXXi.7.o.X.~ E A A A A A A ",
"A A A A A A A A A A H 6.p.XXXXXXXXXXXXXXXXXXXXXXXXXXXXXXXXXXXXXXXXXXXXXXXXXXt.P A A A A A A A A A A ",
"A A A A A A A A A A H  .6.8.8.8.8.8.<.:.:.:.:.:.<.8.8.8.8.8.8.8.8.8.8.8.8.8.6.H A A A A A A A A A A ",
"A A A A A A A A A A A A A A A A A A 2           2 m A A A A A A A A A A A A A A A A A A A A A A A A "
};
