/* XPM */
static char *_3715904ecd3429aaff643f8f2025240koO6GThRA7UGAsbr[] = {
/* columns rows colors chars-per-pixel */
"50 50 204 2 ",
"   c #030201",
".  c #090604",
"X  c #0D0B03",
"o  c #0B0A0A",
"O  c #070901",
"+  c #120C06",
"@  c #140D08",
"#  c #180E09",
"$  c #121502",
"%  c #1A1E03",
"&  c #1C130B",
"*  c #171607",
"=  c #040B13",
"-  c #1A1713",
";  c #101011",
":  c #09101F",
">  c #21130D",
",  c #26190F",
"<  c #2A190F",
"1  c #251A12",
"2  c #2C1C12",
"3  c #261F1F",
"4  c #331F13",
"5  c #1D2204",
"6  c #222404",
"7  c #2C2C04",
"8  c #272709",
"9  c #2A3205",
"0  c #323205",
"q  c #313D06",
"w  c #393706",
"e  c #352315",
"r  c #3B2415",
"t  c #39291C",
"y  c #382719",
"u  c #28211E",
"i  c #101A2C",
"p  c #2B2B2C",
"a  c #362F29",
"s  c #2F2F32",
"d  c #393437",
"f  c #312D34",
"g  c #402717",
"h  c #442B1A",
"j  c #482E1C",
"k  c #412817",
"l  c #4D321E",
"z  c #50351F",
"x  c #4D3421",
"c  c #48362C",
"v  c #46342A",
"b  c #523621",
"n  c #563A23",
"m  c #5A3D29",
"M  c #553C29",
"N  c #443936",
"B  c #432D24",
"V  c #3E4D07",
"C  c #3A4606",
"Z  c #454506",
"A  c #484E08",
"S  c #425207",
"D  c #4E5307",
"F  c #455608",
"G  c #475808",
"H  c #485908",
"J  c #535308",
"K  c #525E08",
"L  c #5D5E09",
"P  c #565607",
"I  c #4C5C12",
"U  c #4A4F1B",
"Y  c #546209",
"T  c #596509",
"R  c #5F6909",
"E  c #616109",
"W  c #626C0A",
"Q  c #6A6A09",
"!  c #67710A",
"~  c #6A720A",
"^  c #73750A",
"/  c #777B0B",
"(  c #7B7D0B",
")  c #7A7E13",
"_  c #5F412B",
"`  c #4E413C",
"'  c #5E4B3E",
"]  c #5C553F",
"[  c #62422D",
"{  c #68472F",
"}  c #694732",
"|  c #6D4B33",
" . c #694A36",
".. c #724E38",
"X. c #6A523F",
"o. c #75523B",
"O. c #79553D",
"+. c #596530",
"@. c #7B7D34",
"#. c #15335A",
"$. c #1A3F6F",
"%. c #1C457B",
"&. c #2D446B",
"*. c #384C75",
"=. c #4B4343",
"-. c #4B474A",
";. c #564A47",
":. c #484C5A",
">. c #56575A",
",. c #675448",
"<. c #7D5840",
"1. c #775C4A",
"2. c #7A5D50",
"3. c #626B46",
"4. c #7D6C59",
"5. c #766252",
"6. c #6C725C",
"7. c #7E715D",
"8. c #777B57",
"9. c #696D55",
"0. c #666667",
"q. c #787B6D",
"w. c #6C6C71",
"e. c #6D6E7F",
"r. c #727377",
"t. c #76767B",
"y. c #797779",
"u. c #7A7B7D",
"i. c #7B7C76",
"p. c #706E7B",
"a. c #825C44",
"s. c #88634A",
"d. c #95694E",
"f. c #966B51",
"g. c #9B6E52",
"h. c #8C7359",
"j. c #9F7154",
"k. c #957259",
"l. c #8F6951",
"z. c #AC7B5D",
"x. c #AC7B5D",
"c. c #A27356",
"v. c #8A7669",
"b. c #957569",
"n. c #8E7D7F",
"m. c #887471",
"M. c #7D800B",
"N. c #7D8017",
"B. c #82820B",
"V. c #86860C",
"C. c #84850C",
"Z. c #88880C",
"A. c #8A8A0C",
"S. c #8A8A0C",
"D. c #868630",
"F. c #9A876F",
"G. c #9B8269",
"H. c #9F8A73",
"J. c #A68166",
"K. c #AD8164",
"L. c #AC886C",
"P. c #B08467",
"I. c #B18568",
"U. c #A38F77",
"Y. c #B48E70",
"T. c #B69174",
"R. c #B8987B",
"E. c #AC987E",
"W. c #1C458E",
"Q. c #1E4B95",
"!. c #37588A",
"~. c #365586",
"^. c #23539C",
"/. c #255A9F",
"(. c #335C96",
"). c #2D4E8B",
"_. c #2559A1",
"`. c #275EAA",
"'. c #2355A1",
"]. c #2A61AD",
"[. c #2A65B4",
"{. c #4F5F80",
"}. c #4E6891",
"|. c #7C7D82",
" X c #717181",
".X c #787E97",
"XX c #6D778D",
"oX c #456CA7",
"OX c #527BB4",
"+X c #4A73AF",
"@X c #7B8199",
"#X c #888793",
"$X c #AF9A80",
"%X c #B39E83",
"&X c #AFA18E",
"*X c #BCA285",
"=X c #B6A389",
"-X c #BFA689",
";X c #B7A186",
":X c #9398AA",
">X c #8C91A5",
",X c #9CA0AF",
"<X c #A4A8B5",
"1X c #C1AC8F",
/* pixels */
"A.A.A.A.A.A.A.A.A.A.A.A.A.A.A.A.A.A.W H H W C.A.A.A.A.A.A.A.A.A.A.A.A.A.A.A.A.A.A.A.A.A.A.A.A.A.A.A.",
"A.A.A.A.A.A.A.A.A.A.A.A.A.A.A.A.A.A.W H H W C.A.A.A.A.A.A.A.A.A.A.A.A.A.A.A.A.A.A.A.A.A.A.A.A.A.A.A.",
"A.A.A.A.A.A.A.A.A.A.A.A.A.A.A.A.A.A.W H H W C.A.A.A.A.A.A.A.A.A.A.A.A.A.A.A.A.A.A.A.A.A.A.A.A.A.A.A.",
"A.A.A.A.A.A.A.A.M.Y H G F F F F F F F F F R ( C.C.A.A.C.C.B.B.B.B.C.A.A.A.A.A.A.A.A.A.A.A.A.A.A.A.A.",
"A.A.A.A.A.A.A.A.M.Y H V % O                   O w ^ B.P %         % Q A.A.A.A.A.A.A.A.A.A.A.A.A.A.A.",
"A.A.A.A.A.A.A.A.M.K H V % O     O . . . . O   X 0 Q ^ J % . O     % E ( ( ( ( ( C.A.A.A.A.A.A.A.A.A.",
"T T ^ A.A.M.R T R / ( Q 7 O . 2 l n n n n l h r < . O > h n h @               $ L C.A.A.A.A.A.A.A.A.",
"H H ! A.A.( H H Y B.A./ 9 O . , h l b n n l h r 2 + X , j n h & . X . . . . . * J ^ / C.A.A.A.A.A.A.",
"H H ! A.A.( H H Y B.A./ 0 O       . 2 l n n n n l h h j b n n n n n n n b h g r @   X E C.A.A.A.A.A.",
"( ( ~ T T W / ( ( / ^ E 7 + . X X # e l n n n n l j h l b n n n n n n n b h h y @   X E C.A.A.A.A.A.",
"A.A.~ H H T C.A./ 7 O . < r h l b n n n n n n n n n n n n n n n n n n n n n n l &   X E C.A.A.A.A.A.",
"A.A.~ H H Y ~ Q E 7 + @ 4 h h l n n n n n n n n n b b b n n n n n n n n n n n l , + * D Q Q / A.A.A.",
"~ ~ ~ ~ ~ W 6   O < r h l n n n n n n n n n n n l h h j b n n n n n n n n n n b h h r +   O Z C.A.A.",
"H H ! A.A.^ 5   O 2 h j b n n n n n b b b b b l j h k h l b b n n n n n n n n n l h r @   O Z C.A.A.",
"H H ! A.A.^ 5   . y b n n n n n n b l h g g g g g g g g g g h b n n n n n n n n n n x &   O Z C.A.A.",
"H H T ~ ~ T %   . y b n n n n n n b l h h l m [ [ [ [ [ [ [ [ | | { n l b n n n n n x &   O 0 Z Z Z ",
"H H G H H S %   . y b n n n n n n b l h h } f.z.z.z.z.z.z.z.z.z.z.d.n g h b n n n n x &     5       ",
"H H H H H S %   . y b n n n n b z b m [ } <.j.z.z.z.z.z.z.z.z.z.z.g...[ [ b l z n n x &     5       ",
"H H K T T K %   . y b n n n n l h l o.j.z.z.z.z.z.z.z.z.z.z.z.z.z.z.z.z.d.n g h l n x &   O 7 6 6 6 ",
"H H ! A.A.B.7 O . e l l b n n _ { } ..o.<.l.J.Y.Y.Y.Y.Y.Y.Y.J.s.O.a.c.z.d.n g r y e e 0 w w L A.A.A.",
"H H ! A.A.B.7 O O < r h l n _ a.c.g.} 4 2 ' U.1X1X1X1X1X1X1XF.c > h s.z.d.n g r @   X E C.A.A.A.A.A.",
"H H ! A.A.C.J w w 8 , 2 h n [ s.L.J.X.e 2 ' U.1X1X1X1X1X1X1XF.c > B k.T.J.<.| _ 1   X L / ( ( ( ( ( ",
"H H ! A.A.A.A.A./ 7 O X y b [ h.%X$X1.y 2 ' U.1X1X1X1X1X1X1XF.c > v H.1X*XP.z.f.t O X D F H H H H H ",
"H H ! A.A.A.A.A./ 7 O + M o.s.G.;X;XG.5.1.v.%X1X1X1X1X1X1X1XE.4.,.4.$X1X*XP.z.f.t O X D F H H H H H ",
"H H ! A.A.A.A.A./ 7 O # o.c.K.T.-X1X1X1X1X1X1X1X1X1X1X1X1X1X1X1X1X1X1X1X*XP.z.f.t O X D F H H H G H ",
"H H ! A.A.A.A.A.~ 6   + x ..<.k.Y.R.*X1X1X1X1X1X1X1X1X1X1X1X1X1X1X-XR.T.L.a.o.} 1   O q F H H H H H ",
"H H ! A.A.A.A.A.~ 6   . < r l o.c.K.T.-X1X1X1X1X1X1X1X1X1X1X1X1X1X*XI.z.d.n g r @   O q F H H H H H ",
"H H ! A.A.A.A.A./ C 9 9 8 & , x } O.k.L.T.T.T.T.T.T.T.T.T.T.T.T.T.J.a...[ 2 & & 8 9 9 V G H H H H H ",
"H H H H H T C.A.M.Y G V % O O > r l o.j.z.z.z.z.z.z.z.z.z.z.z.z.z.d.n g 4 .   O q F H H H H H H H H ",
"H H H H H T C.A.M.K G V % O O > r h n } ..2.m.n.n.n.n.n.n.n.m.2.O.| l g 4 .   O q F H H H H H H H H ",
"H H H H H T C.A.( K H V % O O > r g g g h ;.e..X.X.X.X.X.X.Xp.' n b h g 4 .   O q F H H H H H H H H ",
"$ $ $ $ $ 6 K T Y H G V % O O > r h h l b ;. X@X#X>X:X:X:X:X#X,.n n l l t X   O q F H H H H H H H H ",
"          $ S H H H H V % O O > r h l b m ,. X@X>X,X<X<X<X<X#X,.n n n n h +   O q F H H H H H H H H ",
"          $ S H S 9 5 8 ] 4.4.X.n b b n M :.}.oX+XOXOXOXOXOX}.;.n n n n m ..o. .y 5 5 C F H H H H H ",
"Q Q Q Q Q Q ( ( ~ 7 O - 7.=X;Xh.[ n n n M :.(.[.[.[.[.[.[.[.(.=.n n n n { g.z.f.t O X P / ( / H H H ",
"A.A.A.A.A.A.A.A./ 7 O - 7.=X=Xt.*.&.*.~.!.(.].[.[.[.[.[.[.[.].(.!.!.!.!.{.b.z.f.t O X E C.A.C.H H H ",
"A.A.A.A.A.A.A.A./ 7 O - 7.=X&XXX).W.^.].[.[.[.[.[.[.[.[.[.[.[.[.[.[.[.[.oXb.z.f.t O X E C.A.C.H H H ",
"A.A.A.A.A.C.~ ~ ~ Q Q L U a s &./.`.].[.[.[.[.[.`.^.Q.'.].[.[.[.[.(.:.-.;. .} _ 1   X E C.A.A.~ ~ ~ ",
"A.A.A.A.A.( H H Y B.A./ 0 O = #._.[.[.[.[.[.[.[._.Q.W.^.`.[.[.[.[.(.=.n n n n l &   X E C.A.A.A.A.A.",
"A.A.A.A.A.( H H Y B.A.^ 0 O = #._.[.[.[.[.[.[.].%.i : i f d d =.=.` M n n n n l &   X E C.A.A.A.A.A.",
"A.A.A.A.A.C.~ ~ ~ ~ ~ T 6 O = #./.[.[.[.[.[.[.`.$.:   # e g h b n n n n n n n l &   X E C.A.A.~ ~ ~ ",
"A.A.A.A.A.A.A.A.N.9.q.0.p . . u N ` ` ` ` N N a 3 o     . . X X X X X X X X X - -.0.0.@.A.A.C.H H H ",
"A.A.A.A.A.A.A.A.N.8.u.w.p . . 2 l n n n n l h r < .                           ; >.u.i.D.A.A.C.H H H ",
"A.A.C.( ( ) 8.q.i.u.|.w.p . . 2 l n n n b y @ o p >.w.w.w.w.w.w.w.w.w.w.w.w.w.w.t.|.|.i.q.q.@.H H H ",
"A.A.~ H H I 6.u.|.|.|.w.p . . 2 l n n n b e + o s 0.|.|.|.|.|.|.|.|.|.|.|.|.|.|.|.|.|.|.|.u.3.H H H ",
"A.A.~ H H I 6.u.|.|.|.|.t.r.r.t.y.y.y.y.y.t.r.r.t.|.|.|.|.|.|.|.|.|.|.|.|.|.|.|.|.|.|.|.|.u.3.H H H ",
"( ( W H H I 6.u.|.|.|.|.|.|.|.|.|.|.|.|.|.|.|.|.|.|.|.|.|.|.|.|.|.|.|.|.|.|.|.|.|.|.|.|.|.u.3.H H H ",
"H H H H H H H H I 6.u.|.|.|.|.|.|.|.|.|.|.|.|.|.|.|.|.|.|.|.|.|.|.|.|.|.|.|.|.|.|.|.y.+.I H H H H H ",
"H H H H H H H H I 6.u.|.|.|.|.|.|.|.|.|.|.|.|.|.|.|.|.|.|.|.|.|.|.|.|.|.|.|.|.|.|.|.y.+.H H H H H H ",
"H H H H H H H H H H H H H H H H H H 5           5 S H H H H H H H H H H H H H H H H H H H H H H H H "
};
