/* XPM */
static char *af4ef2b289284722a2bf674175509126j5fSooU1kYEdkRqT[] = {
/* columns rows colors chars-per-pixel */
"50 50 81 1 ",
"  c #8A8A0C",
". c #485908",
"X c #7A7E0B",
"o c None",
"O c #334006",
"+ c #575A08",
"@ c #626209",
"# c black",
"$ c #596509",
"% c #71780B",
"& c #7E810B",
"* c #616B0A",
"= c #19110A",
"- c #120B07",
"; c #69720A",
": c #563A23",
"> c #402717",
", c #3D2919",
"< c #462C1A",
"1 c #656E0A",
"2 c #503520",
"3 c #4B5107",
"4 c #505F09",
"5 c #454506",
"6 c #5F3F2B",
"7 c #6F4D34",
"8 c #AC7B5D",
"9 c #232303",
"0 c #855D46",
"q c #B2896B",
"w c #282803",
"e c #22110D",
"r c #C1AC8F",
"t c #86870C",
"y c #2E1C10",
"u c #654D39",
"i c #4F3D32",
"p c #BB9E81",
"a c #7B5842",
"s c #1E2103",
"d c #8D6349",
"f c #93684C",
"g c #9D7C6E",
"h c #121602",
"j c #242A04",
"k c #546209",
"l c #787E97",
"z c #373129",
"x c #858AA0",
"c c #A4A8B5",
"v c #686809",
"b c #6C6D0A",
"n c #62779F",
"m c #8195B5",
"M c #2A65B4",
"N c #8A7B66",
"B c #96989A",
"V c #49464C",
"C c #255BA8",
"Z c #82840C",
"A c #1A428A",
"S c #86862E",
"D c #132F63",
"F c #7C7D82",
"G c #6E752C",
"H c #305387",
"J c #37598B",
"K c #232425",
"L c #514036",
"P c #614D3E",
"I c #808160",
"U c #7B7D60",
"Y c #6D750A",
"T c #6D735F",
"R c #686C5E",
"E c #5C5E5D",
"W c #58595D",
"Q c #73745F",
"! c #70755F",
"~ c #747860",
"^ c #364306",
/* pixels */
"                  ...X                           o",
"                  ...X                           o",
"                  ...X                           o",
"        X............X                           o",
"        X.....OOOOOOO+  @@@@                     o",
"        X.....########  ####                     o",
"$$%  &$$*XXXXX##====--@@==##@@@@                 o",
"..;  X..$     ##::::>>##::######                 o",
"..;  X..$     ##,,::<<--::====--@@               o",
"XX;$$*XX&     ####::::>>::::::>>##  %$$1         o",
"  ;..$      @@--==::::<<::::::<<##  ;..$         o",
"  ;..$      ##>>::::::::::::::::##  ;..$         o",
";;;;;;;;% @@--<<::::::22::::::::--33;;;%         o",
"..;  X..$ ##>>::::::::>>::::::::>>##;            o",
"..;  X..$ ##<<::::2222>>22::::::<<##;            o",
"..$;;*..4;##::::::>>>>>>>>::::::::##$;;;;;;;;;555o",
"..........##::::::>>6666667722::::##..........###o",
"..........##::::::>>88888888>>::::##..........###o",
"..4$$$$$$$##::::2266888888886622::##$$$$$$$$$$999o",
"..;       ##::::>>888888888888>>::##             o",
"..;       ##22::6600qqqqqq0088>>,,ww             o",
"..;       ##>>::88eerrrrrree88>>##        tXXXXXXo",
"..;       wwyy::qqeerrrrrreeqquu##        X......o",
"..;         ##::rreerrrrrreerrrr##        X......o",
"..;         ##77rriirrrrrriirrpp##        X......o",
"..;     X..$##88rrrrrrrrrrrrrr88##...............o",
"..;     X..$wwaapprrrrrrrrrrppaaws...............o",
"..;     X..$  ##88rrrrrrrrrr88## ;...............o",
".....$  X.....##ddppppppppppdd##.................o",
".....$  X.....##>>8888888888>>##.................o",
".....$  X.....##>>ffggggggff>>##.................o",
"hhhhhj$$k.....##>>::llllll::>>##.................o",
"#####h......OOzzuu::llxxxx::uuzzOO...............o",
"#####h......##rrrr::llcccc::rrrr##...............o",
"vvvvvbXXXXXX##rrrr::nnmmmm::rrrr##XXXXXXXXXXXX...o",
"            ##rrrr::MMMMMM::rrrr##            ...o",
"            wwNNBBVVMMCCMMVVBBNNww            ...o",
"     Z;;%     ##MMMMMMAAMMMMMM##              ;;;o",
"     X..$   SS##MMMMCCDDCCMMMM##SS               o",
"     X..$   FF##MMMMAA##AAMMMM##FF               o",
"     Z;;;;GGFF##HHJJDDKKDDJJHH##FFSSX;;%      ;;;o",
"        X.FFFF##>>::##FF##::>>##FFFF;..$      ...o",
"        X.FFFFKKLLPPKKFFKKPPLLKKFFFF;..$      ...o",
"  ZXXXXX%$FFFFFFFFFFFFFFFFFFFFFFFFFF%$$1  tXXX...o",
"  ;.....$ IUFFFFFFFFFFFFFFFFFFFFFFII      X......o",
"  ;.....$  XFFFFFFFFFFFFFFFFFFFFFF        X......o",
"XX*.....kXXYTTTUUURRREWWQUU!TT~UUUXXXXXXXXY......o",
"..................######^........................o",
"..................######^........................o",
"..................######^........................o"
};
