/* XPM */
static char *_726d6b4521148bdc146aa98601260c7oOAObt8bg8iQCY0n[] = {
/* columns rows colors chars-per-pixel */
"50 50 173 2 ",
"   c black",
".  c #0B0704",
"X  c #0D0D03",
"o  c #090A0D",
"O  c #140D08",
"+  c #180F09",
"@  c #0F1101",
"#  c #151602",
"$  c #181E03",
"%  c #1D130C",
"&  c #07111E",
"*  c #151516",
"=  c #181515",
"-  c #040B17",
";  c #22120D",
":  c #2B1A0F",
">  c #2D1C11",
",  c #311E12",
"<  c #1E2203",
"1  c #232404",
"2  c #252904",
"3  c #2D2D04",
"4  c #2D240A",
"5  c #27240A",
"6  c #303B05",
"7  c #3D3D05",
"8  c #342114",
"9  c #392717",
"0  c #3A291E",
"q  c #382919",
"w  c #3F311B",
"e  c #09162E",
"r  c #0E223C",
"t  c #292A2B",
"y  c #3D2A22",
"u  c #33352D",
"i  c #402717",
"p  c #462C1A",
"a  c #492F1C",
"s  c #4E331F",
"d  c #4E392C",
"f  c #523621",
"g  c #563A23",
"h  c #503428",
"j  c #593B2A",
"k  c #413B32",
"l  c #553F33",
"z  c #364306",
"x  c #3C4A07",
"c  c #3B4306",
"v  c #454506",
"b  c #4D4D07",
"n  c #444208",
"m  c #485908",
"M  c #475408",
"N  c #505F09",
"B  c #5C5C08",
"V  c #525008",
"C  c #546209",
"Z  c #596509",
"A  c #626C0A",
"S  c #696A09",
"D  c #646409",
"F  c #69720A",
"G  c #73730A",
"H  c #71780B",
"J  c #7A7E0B",
"K  c #6F7617",
"L  c #7A7E12",
"P  c #4D562F",
"I  c #4B423C",
"U  c #574539",
"Y  c #5C4536",
"T  c #64442E",
"R  c #694B33",
"E  c #624B3A",
"W  c #694938",
"Q  c #6E533B",
"!  c #735036",
"~  c #76533C",
"^  c #7D573F",
"/  c #596531",
"(  c #646931",
")  c #6A7132",
"_  c #7B7E33",
"`  c #787825",
"'  c #0C1F40",
"]  c #102951",
"[  c #393D4B",
"{  c #323847",
"}  c #3D404D",
"|  c #444552",
" . c #474852",
".. c #504B50",
"X. c #4A5058",
"o. c #535357",
"O. c #5A595C",
"+. c #565658",
"@. c #454544",
"#. c #61514A",
"$. c #645843",
"%. c #755744",
"&. c #775C45",
"*. c #7A5F50",
"=. c #7A6047",
"-. c #787B4D",
";. c #68605E",
":. c #66605E",
">. c #726650",
",. c #777A5A",
"<. c #6E6661",
"1. c #646569",
"2. c #73776E",
"3. c #777A67",
"4. c #6E6F74",
"5. c #75767B",
"6. c #885F46",
"7. c #8F654B",
"8. c #94684D",
"9. c #9A6D51",
"0. c #81735F",
"q. c #997359",
"w. c #AC7B5D",
"e. c #A07255",
"r. c #8B7864",
"t. c #857661",
"y. c #A37E62",
"u. c #7E810B",
"i. c #84850C",
"p. c #8A8A0C",
"a. c #818119",
"s. c #888820",
"d. c #87872A",
"f. c #858633",
"g. c #848440",
"h. c #81815B",
"j. c #95816B",
"k. c #9D866B",
"l. c #968067",
"z. c #9E8A72",
"x. c #B38B6E",
"c. c #B08365",
"v. c #A18F77",
"b. c #BA9C7E",
"n. c #B59173",
"m. c #1A428A",
"M. c #1F4E98",
"N. c #1D4891",
"B. c #395784",
"V. c #36598C",
"C. c #21529D",
"Z. c #345B94",
"A. c #275EAC",
"S. c #2457A4",
"D. c #2861AF",
"F. c #2A65B4",
"G. c #376BB1",
"H. c #4F6586",
"J. c #7C7D82",
"K. c #787E97",
"L. c #667387",
"P. c #446DAA",
"I. c #4371AE",
"U. c #5C7DA8",
"Y. c #527BB4",
"T. c #897D84",
"R. c #BDA386",
"E. c #BFA789",
"W. c #959AAB",
"Q. c #9095A8",
"!. c #9DA1B0",
"~. c #A4A8B5",
"^. c #C1AC8F",
/* pixels */
"p.p.p.p.p.p.p.p.p.p.p.p.p.p.p.p.p.p.m m m J p.p.p.p.p.p.p.p.p.p.p.p.p.p.p.p.p.p.p.p.p.p.p.p.p.p.p.p.",
"p.p.p.p.p.p.p.p.p.p.p.p.p.p.p.p.p.p.m m m J p.p.p.p.p.p.p.p.p.p.p.p.p.p.p.p.p.p.p.p.p.p.p.p.p.p.p.p.",
"p.p.p.p.p.p.p.p.p.p.p.p.p.p.p.p.p.p.m m m J p.p.p.p.p.p.p.p.p.p.p.p.p.p.p.p.p.p.p.p.p.p.p.p.p.p.p.p.",
"p.p.p.p.p.p.p.p.J m m m m m m m m m m m m J p.p.p.p.p.p.p.p.p.p.p.p.p.p.p.p.p.p.p.p.p.p.p.p.p.p.p.p.",
"p.p.p.p.p.p.p.p.J m m m m m 1 $ $ $ $ $ $ 2 3 3 J p.S 3 3 3 3 b p.p.p.p.p.p.p.p.p.p.p.p.p.p.p.p.p.p.",
"p.p.p.p.p.p.p.p.J m m m m m X                   G p.B         3 p.p.p.p.p.p.p.p.p.p.p.p.p.p.p.p.p.p.",
"Z Z H p.p.u.Z Z A J J J J J #   O 9 9 9 9 8 : : 1 1 5 9 9 .   X 3 3 3 3 b p.p.p.p.p.p.p.p.p.p.p.p.p.",
"m m F p.p.J m m Z p.p.p.p.p.#   % g g g g s i i .   % g g X             3 p.p.p.p.p.p.p.p.p.p.p.p.p.",
"m m F p.p.J m m Z p.p.p.p.p.#   . % % s g g s s , : 9 g g 0 9 9 9 9 > : 4 3 3 J p.p.p.p.p.p.p.p.p.p.",
"J J F Z Z A J J u.p.p.p.p.p.#         s g g g g p i p g g g g g g g p i :     M A p.p.p.p.p.p.p.p.p.",
"p.p.F m m Z p.p.p.p.p.S 3 3 : : , 9 9 f g g g g f s f g g g g g g g f s 8     x Z p.p.p.p.p.p.p.p.p.",
"p.p.F m m Z p.p.p.p.p.B     8 i p g g g g g g g g g g g g g g g g g g g 9     x Z p.p.p.p.p.p.p.p.p.",
"F F F F F F F F H 7 3 4 : : a s f g g g g g g g a p s g g g g g g g g g a : : 1 2 b p.p.p.p.p.p.p.p.",
"m m F p.p.J m m Z #   O i i f g g g g g g g g g p i p g g g g g g g g g s i i .   3 p.p.p.p.p.p.p.p.",
"m m F p.p.J m m Z #   % s s g g g g g a p p p p i i i p p g g g g g g g g s s X   3 p.p.p.p.p.p.p.p.",
"m m Z F F A m m N #   % g g g g g g g p i i i i i i i i i f g g g g g g g g g X   1 F F F F F v v v ",
"m m m m m m m m m X   % g g g g g g g p i j 6.6.6.6.6.6.6.7.7.~ p p g g g g g X   $ m m m m m       ",
"m m m m m m m m m X   % g g g g g g g p i T w.w.w.w.w.w.w.w.w.6.i i f g g g g X   $ m m m m m       ",
"m m N Z Z Z Z Z Z @   % g g g g f p p ^ 6.8.w.w.w.w.w.w.w.w.w.e.6.6.f p s g g X   < Z Z Z Z Z 1 1 1 ",
"m m F p.p.p.p.p.p.#   % g g g g s i i 9.w.w.w.w.w.w.w.w.w.w.w.w.w.w.f i p g g X   3 p.p.p.p.p.p.p.p.",
"m m F p.p.p.p.p.p.#   + p p g g T 6.6.j h %.b.b.b.b.b.b.b.E h ! w.w.f i 8 % % V B S p.p.p.p.p.p.p.p.",
"m m F p.p.p.p.p.p.#   O i i f g ! w.w.9 ; U ^.^.^.^.^.^.^.y ; h w.w.f i :     G p.p.p.i.J J J J J J ",
"m m F p.p.p.p.p.p.D B n O O s g &.b.b.y ; U ^.^.^.^.^.^.^.y ; l b.b.k.l.$.    G p.p.p.J m m m m m m ",
"m m F p.p.p.p.p.p.p.p.B     s g =.^.^.y ; U ^.^.^.^.^.^.^.y ; U ^.^.^.^.0.    G p.p.p.J m m m m m m ",
"m m F p.p.p.p.p.p.p.p.B     ~ 7.y.^.^.j.r.z.^.^.^.^.^.^.^.j.r.z.^.^.n.x.&.    G p.p.p.J m m m m m m ",
"m m F p.p.p.p.p.J m m c     7.w.x.^.^.^.^.^.^.^.^.^.^.^.^.^.^.^.^.^.c.w.~     x m m m m m m m m m m ",
"m m F p.p.p.p.p.J m m m B B w 0 E x.x.E.^.^.^.^.^.^.^.^.^.^.^.R.x.x.d 0 q 6 6 M m m m m m m m m m m ",
"m m F p.p.p.p.p.J m m Z p.p.#   0 w.w.R.^.^.^.^.^.^.^.^.^.^.^.b.w.w.%   $ m m m m m m m m m m m m m ",
"m m m m m Z p.p.J m m m m m X   ; T T y.x.x.x.x.x.x.x.x.x.x.x.q.T T O   $ m m m m m m m m m m m m m ",
"m m m m m Z p.p.J m m m m m X   O i i 9.w.w.w.w.w.w.w.w.w.w.w.6.i i .   $ m m m m m m m m m m m m m ",
"m m m m m Z p.p.J m m m m m X   O i i R ! *.T.T.T.T.T.T.T.%.! T i i .   $ m m m m m m m m m m m m m ",
"# # # # # 2 Z Z C m m m m m X   O i i f g #.K.K.K.K.K.K.K.Y g s i i .   $ m m m m m m m m m m m m m ",
"          # m m m m m m m m X   % s s g g #.K.K.Q.W.W.W.W.E g g s s X   $ m m m m m m m m m m m m m ",
"          # m m m m m m m m X   % g g g g #.K.K.!.~.~.~.~.E g g g g X   $ m m m m m m m m m m m m m ",
"S S S S S S J J J J J Z 2 2 >.0.r.k.k.T g ..P.P.Y.Y.Y.Y.Y.U g Q k.k.t.0.$.2 2 F J J J J J J J m m m ",
"p.p.p.p.p.p.p.p.p.p.p.B     v.^.^.^.^.R g  .F.F.F.F.F.F.F.I g =.^.^.^.^.0.    G p.p.p.p.p.p.p.m m m ",
"p.p.p.p.p.p.p.p.p.p.p.B     v.^.^.^.^.H.B.Z.F.F.C.M.S.F.F.V.B.L.^.^.^.^.0.    G p.p.p.p.p.p.p.m m m ",
"p.p.p.p.p.i.F F H p.p.B     v.^.^.^.^.I.F.F.F.F.N.m.M.F.F.F.F.U.^.^.^.^.0.    G p.p.p.p.p.p.p.F F F ",
"p.p.p.p.p.J m m Z p.p.` o.o.k k X.U.U.G.F.A.M.M.' e ] M.M.D.F.G.U.U.@.k I o.o.a.p.p.p.p.p.p.p.p.p.p.",
"p.p.p.p.p.J m m Z p.p.f.J.J.*   r F.F.F.F.S.m.m.-   e m.m.A.F.F.F.F.&   t J.J.s.p.p.p.p.p.p.p.p.p.p.",
"p.p.p.p.p.i.F F F -.,.3.J.J.*   * [ [ |  .{ e e  .o.[ e e }  .| [ [ o   t J.J.3.,.g.p.p.p.p.p.F F F ",
"p.p.p.p.p.p.p.p.J 2.J.J.J.J.*   O i i f g 9     1.J.o.    s g s i i .   t J.J.J.J.h.p.p.p.p.p.m m m ",
"p.p.p.p.p.p.p.p.J 2.J.J.J.J.O.o.O.;.;.<.<.:.o.o.5.J.4.o.o.<.<.<.;.;.+.o.1.J.J.J.J.h.p.p.p.p.p.m m m ",
"p.p.i.J J J J J H 2.J.J.J.J.J.J.J.J.J.J.J.J.J.J.J.J.J.J.J.J.J.J.J.J.J.J.J.J.J.J.J.h.p.i.J J J m m m ",
"p.p.F m m m m m Z d.f.-.J.J.J.J.J.J.J.J.J.J.J.J.J.J.J.J.J.J.J.J.J.J.J.J.J.J.J.g.f.d.p.J m m m m m m ",
"p.p.F m m m m m Z p.p._ J.J.J.J.J.J.J.J.J.J.J.J.J.J.J.J.J.J.J.J.J.J.J.J.J.J.J.s.p.p.p.J m m m m m m ",
"J J A m m m m m C J J K / / / _ _ _ P P P u t t ( ( _ _ ( / / ) _ _ _ _ _ _ _ L J J J F m m m m m m ",
"m m m m m m m m m m m m m m m m m m             z z m m m m m m m m m m m m m m m m m m m m m m m m ",
"m m m m m m m m m m m m m m m m m m             z z m m m m m m m m m m m m m m m m m m m m m m m m ",
"m m m m m m m m m m m m m m m m m m             z z m m m m m m m m m m m m m m m m m m m m m m m m "
};
