/* XPM */
static char *_ac8f148fef04330e8260a28bb3e70a1XzOahOi3LGlA6b4R[] = {
/* columns rows colors chars-per-pixel */
"50 50 3 1 ",
"  c #252A3B",
". c #6A7595",
"X c #434B64",
/* pixels */
"       ........XX                          .......",
"     ......XXXX..  XX..............      ....XXXX.",
"     ......XXXX..  XX..............      ....XXXX.",
".  ..XXXXXX..XXXXXX..................  ..XXXXXXXXX",
".  ..XXXXXX..XXXXXX..................  ..XXXXXXXXX",
".  XXXXXXXXXXXXXX......XXXXXXXXXXXX..  XXXXXXXXXXX",
".  XXXXXXXXXXXXXX......XXXXXXXXXXXX..  XXXXXXXXXXX",
"X  XXXXXXXXXXXX  ..XXXXXXXXXXXXXXXXXX  XXXXXXXXXXX",
"X  XXXXXXXXXXXX  ..XXXXXXXXXXXXXXXXXX  XXXXXXXXXXX",
"                   XXXXXXXXXXXXXXXX      XXXXXXXXX",
"                   XXXXXXXXXXXXXXXX      XXXXXXXXX",
".........    XX........XX    ............    XX...",
".........    XX........XX    ............    XX...",
".XXXXXX....  ......XXXX..  ......XXXXXX....  .....",
".XXXXXX....  ......XXXX..  ......XXXXXX....  .....",
"XXXXX..XXXX  ..XXXXXXXXXX  ..XXXXXXXX..XXXX  ..XXX",
"XXXXX..XXXX  ..XXXXXXXXXX  ..XXXXXXXX..XXXX  ..XXX",
"XXXXXXXXXXX    XXXXXXXX    XXXXXXXXXXXXXXXX    XXX",
"XXXXXXXXXXX    XXXXXXXX    XXXXXXXXXXXXXXXX    XXX",
"XXXXXXXXX                    XXXXXXXXXXXX         ",
"XXXXXXXXX                    XXXXXXXXXXXX         ",
" XX............      ............    XX...........",
" XX............      ............    XX...........",
" ........XXXXXX..  ..........XXXXXX  ........XXXXX",
" ........XXXXXX..  ..........XXXXXX  ........XXXXX",
" ..XXXXXXXXXXXXXX  ......XXXXXXXXXX  ......XXXXXXX",
" ..XXXXXXXXXXXXXX  ......XXXXXXXXXX  ......XXXXXXX",
" XX..XXXXXXXXXXXX  XXXXXXXX..XXXXXX  XX..XXXXXXXXX",
" XX..XXXXXXXXXXXX  XXXXXXXX..XXXXXX  XX..XXXXXXXXX",
"   XXXXXXXXXXXX      XXXXXXXXXXXX      XXXXXXXXXXX",
"   XXXXXXXXXXXX      XXXXXXXXXXXX      XXXXXXXXXXX",
"       ........XX                          .......",
"       ........XX                          .......",
"     ......XXXX..  XX..............      ....XXXX.",
"     ......XXXX..  XX..............      ....XXXX.",
".  ..XXXXXXXXXXXXXX..................  ..XXXXXXXXX",
".  ..XXXXXXXXXXXXXX..................  ..XXXXXXXXX",
".  XXXXXXXXXXXXXX......XXXXXXXXXXXX..  XXXXXXXXXXX",
".  XXXXXXXXXXXXXX......XXXXXXXXXXXX..  XXXXXXXXXXX",
"X  XXXXXXXXXXXX  ..XXXXXXXXXXXXXXXXXX  XXXXXXXXXXX",
"X  XXXXXXXXXXXX  ..XXXXXXXXXXXXXXXXXX  XXXXXXXXXXX",
"                   XXXXXXXXXXXXXXXX      XXXXXXXXX",
"                   XXXXXXXXXXXXXXXX      XXXXXXXXX",
".........    XX........XX    ............    XX...",
".........    XX........XX    ............    XX...",
".XXXXXX....  ......XXXX..  ......XXXXXX....  .....",
".XXXXXX....  ......XXXX..  ......XXXXXX....  .....",
"XXXXX..XXXX  ..XXXXXXXXXX  ..XXXXXXXX..XXXX  ..XXX",
"XXXXX..XXXX  ..XXXXXXXXXX  ..XXXXXXXX..XXXX  ..XXX",
"XXXXXXXXXXX    XXXXXXXX    XXXXXXXXXXXXXXXX    XXX"
};
